<?xml version="1.0" standalone="no"?>
<!DOCTYPE svg PUBLIC "-//W3C//DTD SVG 20010904//EN"
 "http://www.w3.org/TR/2001/REC-SVG-20010904/DTD/svg10.dtd">
<svg version="1.0" xmlns="http://www.w3.org/2000/svg"
 width="1920.000000pt" height="720.000000pt" viewBox="0 0 1920.000000 720.000000"
 preserveAspectRatio="xMidYMid meet">

<g transform="translate(0.000000,720.000000) scale(0.100000,-0.100000)"
fill="#000000" stroke="none">
<path d="M0 3600 l0 -3600 9600 0 9600 0 0 3600 0 3600 -9600 0 -9600 0 0
-3600z m9602 2670 c3 -129 11 -426 18 -660 14 -545 38 -1379 46 -1633 l7 -197
-34 4 c-19 3 -116 8 -216 11 -138 5 -183 4 -183 -5 0 -7 17 -28 37 -48 21 -21
45 -55 54 -77 15 -40 85 -140 157 -224 47 -56 148 -186 210 -270 26 -35 66
-84 88 -109 l42 -46 68 22 c38 12 119 35 179 52 100 27 116 28 175 19 36 -5
111 -14 168 -19 157 -14 252 -47 381 -134 29 -20 57 -36 62 -36 5 0 9 19 9 43
0 43 14 142 25 187 16 59 15 77 -3 118 l-19 43 -21 -25 c-30 -39 -36 -31 -11
14 13 22 28 38 33 35 6 -3 19 -8 28 -11 9 -3 22 -19 29 -36 13 -32 26 -27 29
12 4 54 -1 81 -19 99 -20 20 -37 59 -33 75 2 4 -13 5 -33 2 l-36 -7 3 38 c2
28 7 37 18 34 8 -2 42 -10 75 -18 85 -19 107 -32 99 -57 -6 -19 -5 -19 17 -5
29 19 49 14 49 -13 0 -13 -5 -18 -14 -15 -8 3 -21 -10 -35 -37 -16 -34 -20
-53 -15 -90 4 -27 3 -46 -3 -46 -5 0 -8 15 -6 33 l3 32 -11 -35 c-6 -19 -17
-38 -24 -42 -36 -21 -21 -126 21 -142 11 -4 14 -13 10 -29 -17 -57 -36 -188
-36 -242 0 -33 -4 -94 -10 -135 -5 -41 -15 -127 -21 -190 -6 -63 -14 -135 -16
-158 -3 -24 2 -69 10 -100 28 -99 31 -174 12 -244 -14 -53 -15 -72 -5 -118 17
-85 17 -95 -1 -92 -24 4 -29 -19 -13 -63 11 -32 12 -50 3 -87 -6 -26 -12 -77
-13 -113 -1 -45 -7 -69 -16 -75 -18 -11 -40 6 -40 32 0 23 -29 36 -41 17 -5
-8 -9 -33 -9 -56 0 -50 -11 -54 -41 -14 -12 16 -30 32 -40 34 -13 4 -17 11
-13 24 5 16 4 16 -8 2 -17 -21 -54 -40 -62 -32 -3 3 -6 26 -6 50 0 29 -4 42
-12 40 -19 -3 -22 42 -4 77 62 125 96 256 96 376 0 64 30 242 49 293 17 43 40
195 46 302 3 55 11 140 16 189 11 103 11 105 -69 141 -40 18 -58 22 -63 14 -6
-11 -27 -9 -81 7 -14 4 -18 0 -18 -18 0 -18 -8 -26 -32 -34 -19 -5 -32 -15
-30 -22 1 -8 -1 -11 -6 -8 -4 2 -14 1 -22 -5 -13 -7 -12 -9 3 -9 9 0 17 -6 18
-12 0 -10 2 -10 6 0 9 24 23 0 23 -41 0 -24 7 -53 16 -65 9 -14 17 -50 19 -90
2 -37 7 -80 10 -96 5 -25 4 -27 -8 -17 -12 9 -16 8 -21 -4 -3 -8 -2 -15 3 -15
5 0 6 -20 3 -45 -2 -26 0 -51 7 -58 8 -10 7 -14 -4 -14 -8 0 -12 4 -9 8 2 4 0
10 -6 14 -5 3 -11 -3 -11 -14 -1 -12 -2 -26 -3 -32 -1 -12 -18 -23 -49 -33
-14 -5 -18 -14 -16 -40 2 -19 -1 -39 -5 -43 -5 -5 -6 -2 -1 6 6 10 4 12 -4 7
-9 -6 -9 -11 -1 -21 7 -9 6 -16 -5 -25 -8 -7 -13 -16 -10 -20 7 -12 -37 -37
-59 -34 -10 1 -25 -4 -33 -12 -16 -15 -48 -20 -39 -5 4 5 -3 7 -14 4 -16 -4
-18 -8 -9 -20 16 -18 -3 -38 -45 -47 -27 -7 -28 -6 -15 11 13 17 13 17 -4 4
-10 -8 -16 -20 -13 -28 4 -10 -9 -13 -52 -15 -31 -1 -67 -1 -79 0 -15 0 -23
-5 -24 -16 -1 -15 -2 -14 -6 1 -4 17 -6 17 -17 1 -10 -12 -20 -15 -40 -10 -24
6 -26 9 -14 23 12 15 10 16 -18 10 -19 -3 -36 -1 -44 6 -9 8 -11 8 -7 1 7 -12
-21 -29 -31 -19 -3 3 0 5 7 5 13 0 -66 64 -89 72 -18 6 -24 50 -8 60 10 6 10
8 0 8 -9 0 -11 10 -6 35 4 21 2 35 -4 35 -14 0 -20 -31 -15 -75 2 -23 0 -34
-7 -30 -5 3 -9 23 -9 43 2 56 0 62 -16 56 -18 -7 -20 12 -2 20 6 3 0 4 -16 2
-22 -3 -25 -1 -16 10 9 11 8 14 -1 14 -8 0 -10 3 -7 7 14 14 -57 53 -97 53
-44 1 -76 18 -76 43 0 17 20 27 58 27 39 0 8 18 -46 26 -23 3 -44 9 -46 13 -2
3 0 42 4 86 7 80 4 108 -7 67 -3 -12 -12 -22 -20 -22 -8 0 -21 -17 -29 -37 -8
-21 -20 -47 -26 -58 -6 -11 -18 -32 -26 -47 -7 -16 -18 -28 -23 -28 -6 0 -8
-4 -5 -9 4 -5 2 -20 -3 -32 -7 -20 -12 -11 -35 61 -34 106 -81 208 -131 286
-64 99 -155 255 -155 265 0 5 18 12 40 15 40 7 56 24 22 24 -10 0 -39 7 -64
16 -37 12 -56 29 -105 92 -33 42 -95 115 -137 162 -90 100 -101 118 -110 185
-6 45 8 192 19 203 2 3 36 -14 76 -38 205 -122 563 -563 738 -909 23 -43 33
-45 45 -5 5 16 -18 58 -89 169 -134 207 -203 300 -336 455 -144 167 -270 277
-404 356 -17 10 -17 13 11 64 42 78 133 171 203 209 33 17 92 40 132 50 l72
18 -50 7 c-72 9 -185 68 -250 128 -68 64 -114 134 -145 219 l-23 64 0 785 c0
733 1 789 18 845 55 178 201 317 380 361 35 8 121 12 267 11 l215 -2 7 -235z
m7140 229 c85 -18 177 -69 247 -135 50 -47 65 -68 66 -90 0 -19 5 -29 15 -29
8 0 24 -18 34 -39 45 -91 46 -111 46 -917 0 -661 -2 -772 -15 -817 -15 -48
-18 -52 -40 -46 -30 7 -35 -19 -7 -35 16 -9 16 -12 -3 -48 -11 -21 -49 -67
-85 -104 -72 -73 -178 -133 -257 -145 l-46 -7 75 -22 c98 -28 178 -76 242
-147 178 -196 182 -496 9 -688 -39 -43 -48 -49 -61 -38 -11 9 -13 9 -9 1 4 -6
3 -14 -3 -18 -5 -3 -10 0 -10 9 0 11 -11 14 -45 11 -36 -2 -45 1 -46 14 -1 15
-2 15 -6 0 -3 -14 -9 -15 -38 -6 -19 5 -32 14 -29 18 2 4 -9 6 -26 4 -17 -2
-30 1 -30 7 0 7 -5 6 -15 -2 -8 -7 -15 -9 -15 -6 0 4 -9 2 -20 -4 -17 -9 -20
-8 -20 7 0 10 -3 14 -8 8 -10 -15 -61 -13 -55 2 6 16 3 16 -40 -2 -21 -9 -38
-11 -42 -6 -3 6 -19 16 -35 24 -25 13 -29 13 -35 -1 -3 -8 -3 -17 0 -20 3 -3
5 -1 5 5 0 6 11 8 25 5 42 -8 28 -22 -17 -18 -24 2 -45 4 -47 5 -2 1 4 11 15
23 12 14 13 18 3 10 -9 -6 -18 -9 -22 -6 -3 3 -12 -3 -19 -15 -7 -12 -16 -21
-21 -21 -4 0 -5 4 -2 10 4 6 -6 7 -25 4 -26 -6 -30 -4 -25 12 3 11 -1 6 -9
-11 -8 -16 -15 -24 -16 -17 0 8 -5 10 -12 5 -7 -4 -24 -6 -37 -4 -13 1 -21 -1
-17 -7 3 -6 -2 -8 -11 -6 -26 7 -98 -10 -98 -23 0 -6 -4 -15 -9 -20 -5 -4 -6
-3 -2 4 3 6 2 14 -3 17 -5 3 -12 -1 -15 -10 -4 -11 -13 -14 -28 -11 -25 7 -49
-8 -42 -26 3 -8 -7 -12 -26 -12 -16 0 -30 3 -30 8 0 4 9 7 20 7 11 0 20 4 20
8 0 5 -27 8 -59 8 -44 -1 -65 -7 -83 -21 -22 -19 -22 -19 2 10 13 17 38 43 55
59 21 21 24 27 10 21 -31 -12 -56 -8 -71 12 -8 11 -13 13 -14 6 0 -7 -5 -13
-11 -13 -6 0 -23 -8 -37 -19 -15 -10 -38 -22 -52 -26 -21 -7 -23 -6 -13 7 7 8
10 26 7 41 -3 18 0 29 10 33 8 3 12 12 9 20 -6 16 -33 19 -33 3 0 -6 -6 -9
-12 -6 -14 4 -74 -24 -119 -54 -14 -10 -29 -16 -32 -13 -3 3 -15 0 -28 -6 -20
-11 -21 -11 -15 11 3 13 11 44 16 69 12 61 38 158 44 169 3 5 8 39 12 77 4 38
10 74 14 79 5 6 14 38 21 73 l13 62 38 0 c38 0 52 15 24 26 -9 3 -13 16 -11
32 1 15 3 35 4 45 0 10 13 29 27 42 l27 25 -32 0 c-31 0 -32 2 -31 38 1 20 1
39 0 42 -7 18 -6 70 2 70 5 0 6 5 3 10 -4 6 0 22 9 35 18 27 21 49 6 40 -5 -3
-10 -2 -10 4 0 5 4 12 8 15 5 3 14 29 20 58 23 103 24 98 -8 98 -60 0 -258
-50 -284 -71 -5 -5 3 -11 18 -15 28 -7 34 -19 14 -27 -18 -6 -39 3 -32 14 9
16 -67 14 -131 -3 -22 -6 -56 -12 -77 -14 -20 -2 -48 -8 -63 -14 -14 -5 -42
-10 -60 -10 -22 0 -39 -7 -47 -19 -10 -14 -22 -18 -50 -15 -20 3 -39 0 -43 -6
-3 -5 -14 -10 -23 -10 -10 0 -34 -9 -55 -20 -22 -12 -37 -16 -37 -9 0 8 -5 8
-15 -1 -11 -9 -15 -10 -15 -1 0 31 -27 40 -101 34 -41 -3 -77 -10 -81 -16 -4
-6 -10 -8 -14 -4 -4 4 -17 -1 -28 -12 -23 -21 -136 -38 -136 -21 0 15 -36 12
-50 -5 -7 -8 -17 -15 -22 -15 -5 0 -2 7 6 16 9 8 16 22 16 29 0 12 -5 12 -27
2 -20 -9 -27 -9 -30 0 -5 14 -34 5 -49 -15 -6 -9 -30 -16 -57 -17 -41 -1 -47
1 -47 19 0 19 -1 19 -14 1 -8 -12 -20 -16 -35 -12 -11 3 -21 1 -21 -5 0 -6 -9
-8 -21 -5 -11 3 -22 0 -25 -7 -6 -14 -64 -20 -64 -6 0 5 9 10 19 10 31 0 32
15 3 17 -15 0 -38 2 -52 3 -14 0 -44 0 -67 -1 -24 -1 -49 4 -57 10 -8 7 -20 9
-27 5 -6 -4 -19 -8 -28 -9 -9 -1 -28 -5 -43 -9 -19 -5 -47 -1 -91 13 -36 12
-68 21 -73 19 -5 -1 -18 3 -30 9 -12 7 -33 10 -48 7 -14 -2 -26 0 -26 4 0 5
-17 9 -37 10 -21 0 -60 7 -86 17 -27 9 -51 14 -53 12 -3 -3 4 -31 16 -63 27
-77 80 -286 80 -317 0 -13 3 -26 6 -30 4 -3 17 -34 29 -69 36 -101 69 -183 75
-188 3 -3 25 -45 49 -95 54 -112 50 -105 86 -151 29 -36 30 -41 30 -140 0 -87
2 -101 15 -94 22 11 40 1 40 -21 0 -22 -32 -39 -38 -21 -2 6 -11 3 -23 -9 -30
-30 -46 -23 -18 8 l24 28 -25 -21 c-14 -12 -34 -27 -45 -33 -18 -11 -18 -11 5
-6 21 5 22 4 7 -5 -9 -6 -22 -8 -27 -5 -5 3 -36 -2 -67 -12 -48 -14 -76 -34
-160 -109 -55 -51 -99 -95 -95 -98 3 -3 1 -6 -5 -6 -6 0 -13 -9 -16 -20 -3
-11 -10 -20 -17 -20 -7 0 -9 8 -5 19 5 15 -1 19 -36 24 -22 3 -118 43 -212 88
-155 75 -205 105 -193 116 2 3 69 -27 147 -65 227 -111 299 -136 313 -113 4 5
-2 7 -12 4 -11 -2 -52 8 -93 24 -120 47 -358 167 -358 181 -1 6 1 12 4 12 2 0
66 -31 142 -68 154 -76 264 -122 291 -122 9 1 -3 8 -28 17 -109 37 -409 184
-409 200 -1 7 63 -19 142 -58 180 -88 286 -129 334 -129 36 -1 37 -2 19 -15
-11 -8 -15 -15 -8 -15 6 0 36 21 65 48 91 80 103 89 141 102 21 7 36 14 33 16
-2 2 -30 -5 -62 -16 -39 -13 -70 -18 -96 -14 l-39 7 0 70 c0 90 -8 84 -11 -8
l-3 -70 35 -5 c48 -7 19 -24 -41 -23 l-45 1 45 -7 c31 -5 52 -3 68 6 31 19 28
-3 -4 -24 -15 -9 -41 -17 -58 -17 -29 1 -29 1 -3 -3 15 -2 25 -9 22 -14 -10
-15 -79 -10 -141 11 -81 28 -394 181 -389 191 3 4 85 -30 183 -76 167 -78 238
-105 272 -104 8 0 -16 10 -55 23 -71 24 -312 132 -366 165 -16 10 -27 20 -24
23 3 3 88 -32 188 -77 100 -46 200 -86 222 -89 l40 -6 -35 11 c-84 26 -400
172 -400 185 0 12 4 12 28 0 42 -22 333 -146 342 -146 9 0 -3 68 -17 95 -22
39 -59 64 -150 99 -115 44 -149 61 -136 69 13 8 211 -64 257 -92 35 -22 56
-52 67 -96 6 -25 7 -26 8 -7 3 66 -54 115 -195 167 -113 41 -132 51 -121 61 9
9 163 -42 241 -81 50 -24 65 -38 85 -75 18 -36 22 -39 16 -15 -13 61 -60 92
-221 150 -105 37 -109 39 -100 53 7 11 230 -66 281 -98 19 -12 39 -29 45 -38
5 -9 10 -12 10 -6 1 32 -85 78 -237 128 -77 26 -95 37 -75 50 11 6 243 -77
288 -103 19 -12 32 -16 28 -10 -9 16 -111 60 -211 93 -82 27 -102 39 -84 50
11 7 253 -77 290 -100 23 -16 24 -16 13 -1 -12 15 -160 76 -254 107 -37 11
-45 20 -32 33 6 6 163 -46 247 -82 26 -11 47 -18 47 -16 0 8 -100 50 -190 80
-97 32 -97 32 -84 45 10 10 97 -16 234 -70 30 -12 51 -17 45 -12 -10 10 -17
12 -170 67 -81 29 -119 55 -82 55 16 0 211 -66 240 -81 9 -5 17 -7 17 -4 0 8
-74 39 -169 70 -47 16 -80 32 -78 39 2 6 15 10 28 8 23 -4 24 -3 4 11 -43 32
1 30 98 -4 56 -20 111 -39 122 -43 13 -5 11 -2 -5 8 -14 8 -67 29 -117 46 -59
20 -93 37 -93 46 0 18 -8 19 92 -15 88 -30 129 -48 138 -62 6 -9 116 138 126
168 3 10 -7 0 -22 -22 -104 -145 -94 -135 -126 -119 -44 23 -186 73 -237 85
-25 5 -55 12 -66 16 -16 5 -18 3 -8 -9 10 -11 4 -24 -30 -69 -153 -194 -273
-397 -283 -475 -4 -34 -2 -32 14 18 33 97 124 247 261 431 60 80 81 100 81 79
0 -4 -6 -14 -12 -22 -7 -8 -4 -7 8 3 24 20 54 22 54 4 0 -15 -79 -154 -160
-282 -112 -178 -132 -220 -133 -284 0 -71 20 -108 99 -180 59 -54 227 -141
273 -141 20 0 23 -2 11 -10 -18 -11 -8 -23 14 -14 9 3 13 11 10 16 -4 6 2 5
14 -1 24 -13 35 -14 28 -3 -2 4 12 8 32 9 78 3 118 10 140 22 45 24 33 4 -15
-27 -32 -21 -49 -39 -50 -54 -1 -12 -11 -33 -23 -47 -52 -65 -71 -102 -95
-184 -27 -95 -69 -187 -85 -187 -15 0 -12 15 10 53 21 35 74 206 67 213 -2 3
-14 -33 -27 -78 -23 -85 -63 -168 -80 -168 -14 0 -13 5 15 46 14 20 25 44 25
53 0 9 -12 -5 -27 -31 -14 -27 -33 -48 -40 -48 -10 0 -6 11 12 37 14 21 25 42
25 48 0 5 -12 -9 -26 -32 -14 -24 -32 -43 -40 -43 -11 0 -9 9 11 37 14 21 25
42 25 48 0 5 -12 -9 -26 -33 -34 -58 -62 -58 -29 1 14 23 25 47 25 52 0 6 -14
-14 -31 -44 -17 -30 -34 -49 -39 -45 -9 9 55 152 84 189 14 18 15 16 1 -24
-23 -67 -17 -73 9 -8 13 32 30 65 37 74 8 8 -20 -1 -61 -22 -130 -66 -142 -68
-195 -38 -64 35 -97 82 -96 136 0 11 -5 15 -12 11 -7 -4 -9 -3 -4 1 4 5 0 16
-9 26 -8 9 -16 23 -18 31 -1 7 -11 29 -23 48 -12 20 -28 47 -35 61 -7 13 -31
52 -52 85 l-39 60 -66 -23 c-36 -13 -84 -28 -106 -32 -36 -8 -37 -9 -10 -10
17 -1 63 11 103 25 40 15 75 24 78 21 13 -13 -11 -28 -84 -51 -94 -29 -206
-42 -244 -27 -16 6 -28 9 -28 7 0 -3 -3 -11 -6 -20 -8 -21 45 -46 93 -45 26 1
30 3 13 6 -76 13 -124 43 -55 35 49 -6 182 15 249 38 65 23 79 25 74 8 -3 -7
-42 -25 -89 -40 -46 -15 -74 -27 -63 -28 12 0 41 7 65 16 83 30 99 33 99 21 0
-7 -35 -26 -77 -42 -65 -24 -94 -29 -174 -29 -55 -1 -92 -5 -85 -9 6 -5 3 -6
-9 -2 -11 3 -32 9 -47 12 -24 5 -26 8 -17 30 17 46 8 38 -15 -13 l-24 -51 48
-187 c34 -133 43 -186 34 -186 -20 0 -99 305 -87 336 3 8 3 14 0 14 -3 0 -10
-14 -16 -32 -6 -17 -8 -29 -5 -25 4 4 22 -53 40 -126 18 -72 35 -140 38 -149
8 -33 -23 -19 -33 15 l-9 32 -1 -32 c-1 -34 -20 -47 -22 -15 0 10 -3 12 -6 5
-2 -7 -11 -13 -18 -13 -24 0 -66 23 -62 34 2 6 8 22 12 36 7 23 7 23 -19 -5
l-27 -30 28 57 c14 31 30 55 35 52 4 -3 5 3 1 12 -4 12 -3 15 5 10 8 -5 10 -1
5 10 -3 10 -2 15 3 12 5 -4 9 4 10 15 0 12 4 31 8 42 4 11 -15 -21 -41 -71
-26 -50 -55 -101 -64 -113 l-17 -22 -38 19 c-22 11 -70 31 -109 45 -38 14 -84
33 -102 42 -28 14 -107 38 -170 52 -28 6 -30 -11 -4 -29 11 -8 21 -27 23 -43
1 -15 9 -30 17 -33 9 -3 11 2 7 19 -6 19 -5 21 4 7 12 -20 3 -48 -16 -48 -8 0
-14 -9 -14 -20 0 -11 7 -20 15 -20 8 0 15 -2 15 -4 0 -2 3 -12 7 -22 5 -13 3
-15 -8 -9 -11 7 -12 6 -2 -6 14 -17 17 -65 17 -275 1 -131 -1 -155 -17 -171
-9 -11 -14 -23 -10 -26 3 -4 -1 -15 -9 -24 -21 -24 -45 -81 -52 -123 -3 -19
-10 -55 -15 -80 -13 -58 -14 -127 -2 -132 5 -1 11 -14 13 -28 3 -23 0 -25 -32
-25 -19 0 -41 -4 -48 -8 -10 -7 -122 10 -122 18 0 2 6 18 14 36 21 54 29 92
16 84 -7 -4 -5 6 4 22 8 17 19 74 25 128 6 56 15 101 22 106 9 5 8 16 -5 43
-16 34 -16 38 3 78 10 24 24 61 30 83 11 45 32 218 36 312 2 34 6 67 10 74 5
8 4 10 -3 5 -8 -5 -12 1 -12 18 0 32 10 57 20 51 4 -3 13 9 19 27 6 17 10 32
9 32 -15 7 -81 25 -109 30 -56 10 -64 26 -50 94 19 85 38 135 101 262 31 63
69 145 85 183 15 37 32 67 36 67 7 0 99 171 99 183 0 3 -11 2 -23 0 -18 -4
-40 8 -83 44 -32 27 -85 65 -116 86 -32 21 -76 60 -99 87 -40 48 -62 62 -104
65 -13 1 -21 10 -23 24 -3 16 0 21 8 16 9 -5 8 0 -1 16 -7 13 -12 36 -10 52 1
15 -2 27 -8 27 -6 0 -11 7 -11 15 0 9 9 15 22 15 21 0 21 2 14 102 -3 57 -11
117 -16 135 -28 92 -34 108 -46 120 -16 17 -51 17 -57 1 -8 -24 -39 13 -33 38
4 16 2 22 -6 19 -7 -3 -33 -1 -58 4 l-45 9 45 1 c46 1 70 14 70 38 0 9 -8 11
-25 7 -15 -4 -25 -2 -25 5 0 6 0 14 -1 19 0 4 10 10 23 13 l23 5 -21 12 c-12
6 -41 14 -65 17 -23 3 -44 7 -47 9 -2 2 6 35 17 74 12 38 21 74 21 81 0 24
-39 9 -73 -30 -29 -32 -37 -49 -37 -78 0 -58 -17 -93 -60 -124 -30 -21 -41
-37 -46 -65 -3 -20 -12 -47 -20 -59 -8 -13 -14 -58 -16 -120 -2 -89 1 -103 25
-154 31 -65 33 -91 10 -172 -14 -52 -18 -57 -25 -37 -5 14 -14 20 -23 16 -8
-3 -15 -1 -15 4 0 12 -88 36 -165 46 -33 4 -69 9 -80 11 -35 7 -85 10 -270 18
-99 4 -187 8 -195 10 -13 2 -17 54 -26 346 -7 189 -17 488 -23 664 -20 585
-30 946 -37 1338 l-7 387 3391 0 c2474 0 3405 -3 3444 -11z m-12945 -1296 c2
-6 -6 -13 -19 -15 -30 -4 -38 -38 -9 -38 14 0 21 -6 21 -20 0 -13 -7 -20 -20
-20 -18 0 -20 -7 -20 -60 0 -47 -3 -60 -15 -60 -12 0 -15 13 -15 59 0 50 -3
59 -20 64 -11 3 -20 10 -20 17 0 7 9 14 20 17 12 3 20 14 20 27 0 12 6 28 12
34 15 15 60 12 65 -5z m2013 -98 c0 -96 -3 -115 -15 -115 -12 0 -15 19 -15
115 0 96 3 115 15 115 12 0 15 -19 15 -115z m-2164 -3 c24 -57 44 -106 44
-108 0 -2 -9 -4 -19 -4 -12 0 -23 11 -30 30 -9 28 -14 30 -58 30 -45 0 -50 -2
-60 -30 -6 -17 -19 -30 -28 -30 -23 0 -17 23 35 134 29 63 44 87 56 84 9 -2
34 -45 60 -106z m1295 85 c45 -30 60 -83 36 -133 -20 -41 -66 -64 -127 -64
l-40 0 0 110 0 110 49 0 c33 0 58 -7 82 -23z m603 10 c16 -12 16 -14 3 -26
-12 -9 -21 -10 -37 -1 -16 9 -25 8 -36 -1 -23 -19 -17 -29 31 -49 46 -20 66
-48 57 -82 -6 -24 -41 -48 -69 -48 -31 0 -73 21 -73 36 0 19 20 28 33 15 14
-14 64 -15 72 -1 7 12 -30 50 -50 50 -22 0 -55 37 -55 60 0 49 80 79 124 47z
m-1684 -26 c0 -13 8 -21 23 -23 12 -2 22 -10 22 -18 0 -8 -10 -16 -22 -18 -19
-3 -23 -10 -23 -36 0 -30 24 -66 39 -58 3 2 7 -1 9 -7 6 -17 -27 -25 -54 -13
-20 10 -24 18 -24 58 0 33 -5 51 -17 60 -17 13 -17 15 0 28 9 7 17 21 17 30 0
9 7 16 15 16 8 0 15 -9 15 -19z m188 -41 c12 -12 22 -32 22 -45 0 -24 -3 -25
-55 -25 -57 0 -70 -11 -35 -30 14 -8 26 -8 41 0 11 7 28 9 37 5 15 -6 14 -9
-7 -26 -32 -26 -77 -24 -106 6 -70 70 31 182 103 115z m142 -1 c0 -11 -9 -19
-22 -21 -20 -3 -24 -10 -28 -58 -4 -42 -9 -56 -22 -58 -16 -3 -18 6 -18 76 l0
79 45 0 c36 0 45 -4 45 -18z m150 3 c11 -9 23 -34 26 -54 5 -31 2 -41 -21 -63
-22 -23 -33 -26 -61 -22 -33 6 -34 5 -34 -29 0 -27 -4 -34 -20 -34 -19 0 -20
7 -20 108 l0 108 55 1 c38 1 61 -4 75 -15z m151 8 c13 -7 19 -7 19 0 0 5 7 10
15 10 12 0 15 -15 15 -78 l0 -78 -56 -1 c-69 -2 -94 18 -94 76 0 31 6 44 26
60 30 23 46 26 75 11z m129 -42 l22 -53 24 53 c14 32 30 52 40 52 21 0 15 -24
-35 -134 -31 -67 -45 -86 -60 -86 -20 0 -20 1 -4 35 16 33 16 36 -13 102 -16
37 -30 71 -32 75 -2 4 5 8 16 8 14 0 26 -15 42 -52z m491 42 c13 -7 19 -7 19
0 0 5 7 10 15 10 12 0 15 -16 15 -80 0 -64 -3 -80 -15 -80 -8 0 -15 5 -15 12
0 9 -3 9 -12 0 -18 -18 -52 -14 -82 9 -37 29 -37 89 0 118 30 23 46 26 75 11z
m129 -41 l24 -51 25 51 c17 34 31 51 44 51 10 0 17 -4 15 -9 -1 -4 -23 -54
-48 -110 -34 -75 -50 -101 -64 -101 -14 0 -17 5 -11 23 16 54 16 67 -9 115
-29 57 -33 82 -13 82 8 0 24 -23 37 -51z m498 -29 l-3 -75 -52 -2 c-70 -3 -98
19 -98 77 0 58 27 79 101 77 l55 -1 -3 -76z m232 60 c11 -11 20 -31 20 -45 0
-24 -3 -25 -55 -25 -57 0 -70 -11 -35 -30 14 -8 26 -8 41 0 11 7 28 9 37 5 15
-6 14 -9 -7 -26 -51 -42 -131 -5 -131 61 0 66 85 105 130 60z m1029 -656 c28
-6 31 -10 31 -45 l0 -39 -45 0 c-52 0 -65 -16 -65 -79 l0 -41 45 0 45 0 0 -40
0 -40 -45 0 -45 0 0 -160 0 -160 -45 0 -45 0 0 159 0 160 -42 3 c-42 3 -43 4
-46 41 l-3 37 44 0 45 0 4 70 c3 56 8 74 28 95 34 36 83 50 139 39z m290 0
c28 -6 31 -10 31 -45 l0 -39 -45 0 c-52 0 -65 -16 -65 -79 l0 -41 55 0 55 0 0
-40 0 -40 -55 0 -55 0 0 -160 0 -160 -45 0 -45 0 0 160 0 160 -35 0 c-34 0
-35 1 -35 40 0 39 1 40 34 40 l34 0 4 70 c3 56 8 74 28 95 34 36 83 50 139 39z
m-2613 -43 c79 -36 115 -129 79 -205 -10 -21 -26 -43 -35 -48 -15 -10 -14 -14
16 -40 92 -81 47 -235 -77 -268 -125 -34 -269 48 -269 155 0 23 4 25 44 25 40
0 44 -2 49 -30 12 -58 103 -88 166 -55 33 16 41 33 41 79 0 45 -30 69 -93 76
-52 5 -52 5 -55 43 -3 36 -2 37 30 37 43 0 79 19 97 51 32 57 -29 119 -103
105 -38 -7 -76 -46 -76 -77 0 -16 -8 -19 -45 -19 -43 0 -45 1 -45 30 0 116
156 195 276 141z m455 9 c44 -12 104 -69 124 -117 11 -25 15 -74 15 -173 0
-124 -2 -141 -23 -181 -13 -24 -43 -57 -66 -74 -38 -27 -51 -30 -116 -30 -65
0 -78 3 -116 30 -69 49 -83 88 -87 239 -4 154 6 202 57 254 54 56 131 74 212
52z m446 -21 c46 -29 77 -98 68 -155 -7 -51 -48 -105 -95 -124 -40 -17 -120
-8 -153 16 -37 27 -67 85 -67 129 0 128 136 202 247 134z m-3245 -176 c3 -162
6 -204 20 -229 19 -34 71 -64 113 -64 42 0 94 30 113 64 14 26 18 65 20 229
l4 197 44 0 44 0 0 -207 c0 -181 -3 -213 -19 -249 -60 -132 -257 -167 -365
-66 -59 56 -66 86 -66 315 l0 207 44 0 44 0 4 -197z m3589 180 c-6 -10 -86
-137 -179 -283 l-168 -265 -47 -3 c-26 -2 -47 0 -47 3 0 4 80 132 177 286
l177 279 48 0 c44 0 48 -2 39 -17z m-2341 -98 l0 -55 60 0 60 0 0 -40 0 -40
-60 0 -60 0 0 -104 c0 -123 7 -136 76 -136 l45 0 -3 -37 c-3 -34 -7 -38 -38
-45 -54 -13 -120 10 -147 51 -21 31 -23 46 -23 152 l0 119 -40 0 -40 0 0 40 0
40 40 0 40 0 0 55 0 55 45 0 45 0 0 -55z m-509 -55 c55 -15 114 -85 129 -152
11 -46 10 -63 -4 -110 -37 -127 -182 -189 -278 -118 l-27 20 -3 -102 -3 -103
-45 0 -45 0 -3 283 -2 282 50 0 c44 0 50 -3 50 -21 0 -20 0 -20 28 -1 44 32
93 39 153 22z m940 -2 c124 -42 180 -186 118 -300 -68 -122 -238 -144 -335
-43 -152 158 10 414 217 343z m2577 -4 c134 -55 174 -223 79 -331 -90 -102
-256 -93 -333 19 -26 37 -29 50 -29 118 0 68 3 81 29 118 54 78 167 113 254
76z m-599 -105 c50 -28 73 -64 79 -120 6 -60 -10 -100 -54 -138 -68 -61 -179
-45 -231 32 -30 44 -31 128 -3 174 40 67 140 92 209 52z m5071 11 c0 -5 -5
-10 -11 -10 -5 0 -7 5 -4 10 3 6 8 10 11 10 2 0 4 -4 4 -10z m44 -95 c56 -89
68 -126 46 -140 -5 -3 -22 0 -37 8 -16 8 -41 19 -58 24 -31 9 -31 10 -18 75 4
23 1 28 -23 34 -62 15 -46 31 30 30 34 -1 44 -6 60 -31z m-104 -30 c0 -8 -4
-15 -9 -15 -13 0 -22 16 -14 24 11 11 23 6 23 -9z m4664 -60 c-4 -8 -11 -15
-16 -15 -6 0 -5 6 2 15 7 8 14 15 16 15 2 0 1 -7 -2 -15z m-5957 -201 c-3 -3
-12 -4 -19 -1 -8 3 -5 6 6 6 11 1 17 -2 13 -5z m61 -1 c-10 -2 -26 -2 -35 0
-10 3 -2 5 17 5 19 0 27 -2 18 -5z m-4048 -121 c25 -20 30 -63 10 -87 -7 -8
-27 -15 -45 -15 -38 0 -57 19 -57 57 0 27 32 63 57 63 7 0 23 -8 35 -18z
m-460 -113 l0 -120 33 23 c43 31 133 32 173 2 64 -47 69 -62 72 -230 l4 -154
-46 0 -46 0 0 120 c0 138 -13 184 -56 200 -40 16 -90 -4 -111 -43 -13 -24 -18
-64 -21 -154 l-4 -123 -44 0 -44 0 0 300 0 300 45 0 45 0 0 -121z m-270 -24
l0 -55 55 0 55 0 0 -40 0 -40 -55 0 -55 0 0 -108 c0 -71 4 -112 12 -120 7 -7
31 -12 55 -12 l43 0 0 -39 c0 -36 -2 -39 -34 -44 -47 -7 -103 7 -132 34 -33
31 -44 78 -44 192 l0 97 -39 0 c-39 0 -40 1 -43 37 -3 32 -18 4 -127 -238 -68
-151 -127 -278 -131 -282 -4 -5 -28 -7 -53 -5 l-47 3 40 85 c22 47 40 92 40
101 0 9 -33 89 -74 178 -101 218 -97 201 -39 201 l49 0 55 -131 c31 -72 59
-130 64 -130 4 0 33 58 64 130 l56 131 93 0 92 0 0 55 0 55 50 0 50 0 0 -55z
m-1950 -55 c67 -19 130 -108 130 -185 l0 -35 -160 0 -160 0 11 -27 c32 -85
137 -106 205 -42 l23 21 35 -22 36 -22 -20 -28 c-40 -56 -144 -83 -230 -60
-61 16 -123 81 -139 145 -19 76 0 147 54 201 59 59 132 77 215 54z m908 -14
c53 -27 85 -80 90 -147 l4 -59 -156 0 c-92 0 -156 -4 -156 -10 0 -20 24 -60
45 -74 53 -35 125 -28 172 16 l22 20 30 -22 c17 -12 31 -25 31 -30 0 -18 -72
-70 -112 -81 -136 -36 -261 43 -275 174 -10 98 34 177 122 219 47 22 134 20
183 -6z m403 14 c5 0 9 -21 9 -46 0 -45 -1 -46 -27 -41 -14 3 -39 0 -55 -5
-47 -17 -58 -52 -58 -188 l0 -120 -50 0 -50 0 0 200 0 200 50 0 c45 0 50 -2
50 -22 0 -20 1 -20 19 -4 22 20 70 36 89 30 8 -2 18 -4 23 -4z m1786 -16 c54
-40 63 -75 63 -236 l0 -148 -45 0 -45 0 0 133 c0 105 -3 137 -16 155 -36 52
-104 48 -141 -8 -21 -30 -23 -45 -23 -156 l0 -124 -45 0 -45 0 0 200 0 200 45
0 c39 0 45 -3 45 -22 0 -20 1 -20 18 -5 45 41 141 46 189 11z m423 -3 c36 -26
40 -26 40 -1 0 17 7 20 45 20 l45 0 0 -197 c-1 -268 -10 -302 -101 -353 -60
-34 -162 -35 -231 -2 -70 35 -77 47 -43 82 l28 29 31 -22 c45 -32 142 -36 178
-8 26 21 48 73 48 115 0 19 -1 19 -22 -2 -84 -78 -221 -42 -280 72 -31 61 -23
162 18 213 64 80 175 105 244 54z m-3216 -117 c68 -157 55 -159 132 24 l48
112 52 0 53 0 -64 -140 c-35 -77 -76 -167 -91 -200 -26 -59 -27 -60 -68 -60
l-41 0 -82 183 c-45 100 -85 190 -89 200 -5 15 0 17 42 17 l49 0 59 -136z
m2386 -64 l0 -200 -45 0 -45 0 0 200 0 200 45 0 45 0 0 -200z m5501 154 c6 -8
20 -14 31 -14 11 0 34 -10 51 -23 18 -12 41 -27 52 -33 11 -6 30 -26 43 -45
19 -27 22 -41 16 -69 -4 -19 -6 -59 -5 -87 2 -60 -9 -68 -31 -22 -9 17 -18 30
-22 30 -3 -1 -9 -1 -13 -1 -5 0 -8 21 -8 48 -1 61 -13 122 -25 122 -5 0 -7 -7
-3 -17 5 -13 1 -15 -24 -10 l-29 6 8 -67 c5 -37 16 -77 24 -89 8 -12 14 -42
14 -67 0 -24 4 -46 9 -48 5 -2 5 -13 0 -26 -8 -20 -15 -23 -54 -21 -96 5 -117
55 -112 269 3 155 13 192 47 183 10 -3 25 -11 31 -19z m-460 -182 c-18 -2 -37
0 -42 5 -5 5 11 6 34 3 41 -4 41 -5 8 -8z m5399 -64 c0 -18 -2 -20 -9 -8 -6 8
-7 18 -5 22 9 14 14 9 14 -14z m-3179 -37 c128 -50 179 -95 179 -157 0 -27
-28 -14 -34 16 -8 44 -47 75 -137 110 -111 43 -149 62 -143 72 4 5 11 7 18 5
6 -3 59 -24 117 -46z m3829 39 c0 -5 -5 -10 -11 -10 -5 0 -7 5 -4 10 3 6 8 10
11 10 2 0 4 -4 4 -10z m-5327 -68 c-21 -42 -28 -50 -35 -38 -9 15 13 61 37 78
5 4 6 8 2 8 -5 0 -5 5 -1 11 3 6 10 7 15 2 4 -4 -4 -32 -18 -61z m1449 9 c53
-22 110 -47 127 -55 31 -17 61 -52 61 -73 0 -19 -27 -4 -33 18 -5 19 -21 27
-181 95 -38 16 -71 35 -74 42 -5 16 -9 17 100 -27z m2958 20 c0 -5 -7 -11 -14
-14 -10 -4 -13 -1 -9 9 6 15 23 19 23 5z m-2940 -66 c58 -25 112 -53 120 -62
18 -19 26 -22 -116 39 -100 42 -173 85 -129 74 11 -2 67 -25 125 -51z m846
-70 c20 -13 44 -74 44 -112 0 -39 21 -44 109 -26 76 15 87 15 129 0 29 -9 98
-17 182 -21 157 -6 225 -21 335 -76 80 -39 204 -132 213 -159 3 -10 0 -11 -9
-5 -8 4 0 -9 18 -29 18 -20 37 -53 43 -74 18 -59 29 -186 19 -200 -7 -7 -6
-14 1 -18 5 -3 10 -18 10 -33 -1 -26 -1 -26 -15 -8 -17 23 -20 4 -5 -25 13
-24 2 -48 -12 -28 -6 10 -7 7 -3 -9 4 -13 2 -28 -3 -35 -6 -7 -15 -28 -20 -47
l-9 -35 -12 25 c-9 22 -10 21 -5 -12 4 -24 2 -38 -4 -38 -6 0 -12 6 -15 13 -2
6 -2 0 0 -15 2 -14 -1 -29 -6 -33 -6 -3 -11 1 -11 9 0 8 -4 17 -9 20 -5 4 -7
-3 -4 -14 3 -11 2 -28 -2 -37 -7 -16 -9 -15 -15 7 -8 23 -8 23 -9 -7 -1 -35
-16 -45 -24 -15 -3 9 -5 4 -6 -13 -1 -21 -4 -26 -10 -17 -6 10 -10 6 -16 -15
-7 -26 -8 -26 -15 -8 -8 18 -9 17 -9 -6 -1 -38 -13 -43 -27 -12 -13 28 -13 28
-8 -9 3 -20 0 -39 -6 -43 -5 -3 -10 0 -10 7 0 7 -9 19 -20 26 -21 13 -18 37 4
29 7 -3 13 1 13 8 0 7 -7 11 -16 8 -16 -5 -3 8 44 43 20 14 20 14 -1 5 -12 -6
-24 -8 -28 -6 -3 3 -4 3 -2 0 2 -3 -10 -20 -27 -36 -21 -21 -27 -33 -19 -38 8
-5 -2 -15 -27 -29 -21 -12 -58 -42 -81 -66 -24 -25 -48 -43 -52 -40 -16 10
-38 -18 -44 -58 -4 -21 -11 -41 -17 -45 -6 -3 -8 6 -5 26 2 17 1 31 -3 31 -9
0 -19 -26 -19 -50 0 -10 -5 -22 -12 -26 -8 -5 -9 0 -5 15 3 14 1 21 -6 18 -7
-2 -12 -11 -12 -20 0 -8 -4 -19 -8 -23 -4 -4 -7 0 -7 9 0 20 -122 -66 -207
-145 -32 -29 -61 -48 -75 -48 -18 1 19 42 181 203 113 111 194 193 180 181
-13 -11 -46 -39 -73 -62 -27 -23 -53 -39 -59 -35 -5 3 -7 2 -4 -4 8 -12 -255
-273 -274 -273 -8 1 49 62 126 138 154 151 113 130 -57 -28 -115 -108 -135
-116 -201 -85 -18 8 -77 31 -132 51 -112 40 -166 45 -260 20 -62 -16 -254 -34
-244 -23 3 4 32 16 65 26 32 11 48 20 34 19 -43 -1 -50 2 -50 16 0 8 -6 16
-12 19 -27 9 2 17 77 21 42 2 80 8 84 13 9 15 127 23 140 10 6 -6 13 -8 16 -5
11 11 -42 35 -105 47 -68 13 -120 35 -120 50 0 5 17 18 38 28 24 13 38 28 40
43 2 13 10 30 18 38 16 16 96 42 128 42 16 0 22 7 24 25 1 14 9 37 19 51 15
24 15 28 1 38 -24 18 -46 69 -54 124 -3 29 -10 49 -15 46 -18 -11 -20 27 -4
82 18 62 16 78 -5 39 -7 -14 -17 -25 -22 -25 -5 0 -6 5 -3 10 4 6 1 17 -5 25
-10 12 -7 25 14 65 46 89 4 49 -63 -60 -128 -207 -221 -363 -218 -366 1 -2 19
1 40 6 21 4 39 4 42 -1 9 -14 -87 -70 -111 -64 -20 4 -20 1 -16 -80 l5 -85
-31 0 c-22 0 -32 -6 -37 -20 -3 -11 -13 -20 -21 -20 -8 0 -14 -7 -14 -15 0 -8
-13 -24 -29 -36 -16 -11 -35 -32 -42 -45 -7 -13 -18 -24 -26 -24 -7 0 -13 -6
-13 -14 0 -22 -134 -66 -221 -73 -43 -3 -83 -9 -90 -13 -16 -10 -28 -94 -17
-115 26 -46 200 -548 218 -630 5 -23 12 -49 16 -58 6 -16 -19 -17 -319 -17
l-325 0 -6 93 c-3 50 -13 234 -21 407 -9 173 -21 356 -26 405 -6 50 -14 161
-18 247 -4 86 -10 161 -15 165 -11 10 1 -257 14 -342 5 -33 17 -206 25 -385 9
-179 20 -383 25 -454 9 -121 8 -147 -6 -134 -9 10 -23 186 -39 508 -9 173 -20
367 -26 430 -32 365 -29 504 14 564 13 18 15 27 7 24 -48 -16 -69 -162 -51
-358 6 -63 19 -277 31 -475 20 -374 36 -593 46 -657 l6 -38 -59 0 -58 1 -37
77 c-23 50 -57 99 -95 138 l-58 61 -55 -13 c-78 -18 -123 -39 -204 -93 -105
-71 -176 -104 -176 -82 0 6 24 23 53 37 28 15 83 47 121 72 88 58 169 91 224
92 24 0 42 5 42 11 0 18 -94 3 -154 -24 -28 -13 -79 -42 -111 -64 -55 -37
-157 -93 -170 -93 -3 0 -5 4 -5 9 0 6 35 28 79 51 80 42 259 184 297 236 28
39 64 110 64 126 0 7 -16 -16 -35 -51 -42 -79 -49 -86 -164 -183 -112 -95
-268 -179 -236 -128 3 6 37 26 75 45 120 60 281 208 322 295 44 92 42 111 -1
23 -37 -73 -53 -92 -147 -176 -95 -85 -237 -177 -251 -164 -10 11 8 26 80 65
77 42 229 174 277 239 27 36 70 136 70 158 -1 6 -12 -17 -26 -50 -36 -87 -64
-122 -172 -220 -100 -90 -232 -170 -232 -141 0 8 33 32 73 53 102 53 267 213
307 299 17 34 33 77 36 96 3 18 -6 2 -20 -35 -29 -81 -49 -108 -158 -219 -59
-60 -104 -95 -156 -122 -69 -36 -92 -41 -78 -17 4 6 38 27 76 46 73 39 224
181 268 253 39 64 62 156 61 241 l-2 76 -7 -95 c-11 -135 -34 -187 -131 -298
-84 -97 -132 -138 -212 -179 -41 -21 -48 -22 -45 -7 1 9 37 36 78 59 108 61
256 234 275 320 5 21 0 15 -18 -20 -28 -59 -126 -184 -185 -237 -42 -38 -140
-93 -149 -84 -10 9 7 23 73 62 74 43 131 102 198 202 84 128 97 237 45 399
-32 99 -38 150 -20 181 9 14 10 11 11 -15 0 -17 5 -44 11 -60 6 -15 17 -55 25
-88 14 -60 14 -60 9 -11 -3 27 -12 73 -21 101 -15 48 -15 58 -1 111 l15 59 1
-55 c1 -30 8 -100 16 -155 8 -55 15 -120 16 -145 2 -35 3 -38 6 -15 3 17 -3
90 -12 162 -18 136 -15 226 8 257 10 13 11 1 9 -61 -1 -43 2 -114 7 -158 7
-67 8 -57 4 61 -5 120 -3 145 12 177 9 20 21 37 26 37 6 0 5 -8 -1 -19 -5 -11
-9 -59 -8 -108 l1 -88 6 95 c4 67 11 104 24 123 38 59 169 137 289 173 68 21
138 33 132 23 -3 -5 0 -9 5 -9 6 0 11 5 11 10 0 6 7 10 16 10 14 0 14 -3 3
-16 -7 -9 -21 -13 -33 -10 -12 2 -34 -1 -51 -9 -30 -13 -30 -13 16 -10 49 3
89 19 89 36 0 6 7 8 16 5 8 -3 25 -1 36 5 15 8 19 8 14 0 -4 -6 -3 -11 3 -11
5 0 13 5 16 10 9 14 52 12 137 -5 45 -10 74 -12 76 -6 2 5 11 7 19 4 11 -4 9
1 -5 15 -24 24 -30 48 -9 36 24 -14 56 -47 52 -54 -2 -4 12 -22 32 -41 l36
-34 -22 32 c-16 24 -18 31 -7 27 8 -3 29 -28 46 -54 17 -27 38 -54 47 -62 9
-7 -1 13 -21 45 -20 31 -33 57 -29 57 4 0 28 -11 52 -25 52 -30 55 -30 41 -6
-7 14 -7 22 2 27 6 4 8 3 5 -3 -3 -5 7 -25 24 -44 l29 -34 -22 48 c-20 43 -25
47 -50 42 -32 -7 -92 18 -113 48 -15 21 -12 37 7 37 6 0 8 -3 5 -6 -7 -7 72
-74 88 -74 5 0 -7 11 -28 25 -48 33 -53 59 -6 34 16 -8 25 -7 39 6 9 9 21 15
26 13 5 -1 19 3 32 10 l22 13 -17 -36 c-19 -39 -49 -50 -37 -13 6 21 5 22 -12
8 -10 -8 -21 -15 -22 -16 -4 -3 54 -34 61 -34 2 0 4 6 4 13 0 15 48 93 63 102
16 10 12 -3 -19 -65 l-29 -57 53 -17 c28 -9 72 -30 96 -46 l44 -30 42 45 c36
40 44 57 66 150 24 98 29 110 76 160 45 50 72 107 57 122 -3 4 -6 -3 -6 -14 0
-23 -38 -83 -81 -128 -21 -23 -35 -55 -53 -127 -27 -105 -43 -143 -75 -172
-26 -24 -27 -17 -1 27 11 18 34 80 51 138 30 97 66 168 103 198 8 7 18 26 21
43 5 22 20 38 55 60 34 21 47 35 43 47 -4 12 -3 13 4 3 8 -10 15 -11 36 -1 15
7 27 16 27 20 0 4 3 16 6 26 3 10 -3 5 -15 -12 l-21 -30 -2 30 c0 17 -1 36 -1
42 1 7 -3 10 -8 7 -5 -3 -6 -16 -3 -29 3 -12 1 -26 -5 -29 -6 -4 -9 7 -9 26 1
27 15 46 75 107 74 73 104 89 64 32 -12 -16 -35 -41 -51 -55 -17 -13 -34 -37
-40 -53 -8 -24 -8 -25 3 -9 14 23 148 176 153 176 11 0 0 -23 -32 -70 -31 -46
-67 -123 -61 -134 1 -3 -1 -7 -4 -11 -12 -12 -19 46 -9 68 11 22 11 22 -5 2
-9 -11 -14 -29 -10 -42 3 -12 0 -25 -6 -29 -8 -5 -8 -9 1 -14 7 -5 0 -14 -22
-28 -18 -12 -28 -22 -22 -22 14 0 97 71 90 77 -9 10 28 88 70 150 24 33 40 63
38 66 -3 3 0 8 7 13 8 4 10 3 5 -4 -4 -7 -1 -12 8 -12 22 0 20 -13 -4 -35 -11
-10 -20 -30 -19 -44 1 -24 1 -24 10 6 15 52 33 54 26 3 -4 -29 -2 -39 4 -29 5
7 9 26 9 40 0 15 6 32 14 38 12 10 15 8 19 -11 3 -13 4 -6 3 14 -2 21 -6 41
-9 45 -4 3 -7 13 -7 20 0 16 30 10 66 -12z m-4743 -87 c101 -158 216 -381 242
-470 27 -94 28 -152 4 -198 -26 -49 -86 -107 -141 -137 -22 -12 -51 -31 -63
-43 -22 -21 -111 -70 -126 -70 -4 0 0 26 8 58 10 37 14 84 11 134 -6 97 -41
173 -169 361 -49 72 -89 138 -89 145 0 26 63 134 107 182 39 43 137 119 155
120 5 0 32 -37 61 -82z m4475 -17 c-8 -11 -39 -40 -70 -66 -53 -43 -56 -48
-46 -71 9 -18 8 -28 0 -36 -9 -9 -12 -4 -12 20 0 18 -5 32 -11 32 -6 0 -8 -8
-5 -18 4 -10 -1 -27 -9 -38 -15 -18 -16 -18 -13 6 1 14 0 30 -4 35 -3 6 36 46
86 91 84 75 117 92 84 45z m-40 10 c-1 -5 -39 -40 -83 -78 -54 -46 -83 -79
-90 -101 -11 -39 -29 -43 -22 -5 5 26 4 26 -9 8 -8 -10 -14 -25 -14 -32 0 -7
-4 -13 -10 -13 -25 0 -5 37 50 91 99 97 191 164 178 130z m-513 -105 c77 -37
159 -72 183 -79 51 -13 59 -40 10 -30 -39 7 -298 125 -339 154 -32 22 -39 43
-11 31 9 -4 80 -38 157 -76z m150 -108 l50 -19 -45 4 c-49 5 -197 73 -245 112
-22 18 -1 11 80 -26 61 -28 133 -60 160 -71z m216 19 c-17 -17 -22 -2 -9 29
11 28 12 29 16 5 2 -13 -1 -28 -7 -34z m-761 33 c0 -15 -83 -49 -155 -65 -40
-9 -50 -14 -30 -14 17 0 67 12 113 28 57 20 82 25 82 16 0 -7 -22 -22 -48 -33
-108 -47 -218 -55 -283 -21 -22 11 -60 21 -83 22 -30 1 -42 6 -39 15 8 18 35
15 95 -13 31 -15 69 -24 93 -24 37 1 36 2 -14 9 -29 5 -58 14 -65 20 -8 10 -5
11 14 7 35 -8 184 17 245 41 58 23 75 26 75 12z m14 -112 c20 -69 96 -238 96
-215 0 10 -12 41 -26 70 -24 47 -24 50 -6 33 12 -10 31 -37 42 -60 l22 -41 -6
35 -6 35 19 -28 c11 -18 20 -24 23 -16 5 14 12 11 71 -25 29 -18 35 -25 23
-29 -9 -4 -16 -1 -17 6 0 9 -2 9 -6 0 -2 -7 -9 -13 -14 -13 -4 0 -6 6 -3 13 3
8 -2 20 -11 27 -12 10 -15 10 -15 -1 0 -12 -92 -44 -150 -52 -8 -1 -18 -5 -21
-10 -3 -4 -25 -10 -50 -13 -24 -3 -48 -10 -53 -15 -18 -16 -52 -9 -75 15 -12
12 -42 74 -67 137 -25 63 -48 120 -51 127 -3 6 -1 12 5 12 5 0 24 -37 43 -82
47 -121 76 -175 101 -192 38 -27 41 -18 4 14 -24 22 -46 60 -77 137 -24 59
-45 111 -47 115 -2 4 2 8 10 8 7 0 30 -44 52 -103 40 -105 86 -167 123 -167
12 1 8 5 -12 14 -39 17 -58 46 -101 156 -39 103 -39 100 -19 100 8 0 15 -4 15
-9 0 -6 14 -49 31 -96 38 -105 74 -146 127 -144 l37 1 -37 7 c-62 13 -81 38
-124 165 -27 79 -29 89 -13 84 6 -2 27 -46 45 -98 37 -104 58 -131 100 -133
16 -1 32 -6 36 -12 15 -20 8 14 -13 62 -28 63 -69 183 -69 200 0 34 21 7 41
-54 12 -38 33 -92 46 -121 12 -29 23 -61 23 -72 0 -11 5 -20 10 -20 15 0 12
20 -11 70 -32 69 -79 212 -73 221 9 15 12 10 28 -43z m-409 -45 c14 -67 53
-217 72 -275 4 -12 0 -18 -11 -18 -9 0 -16 2 -16 4 0 2 -11 46 -25 98 -48 183
-64 268 -50 268 8 0 19 -29 30 -77z m49 -45 c16 -68 37 -148 47 -178 23 -65
22 -60 5 -60 -18 0 -38 60 -71 210 -14 63 -28 123 -31 133 -3 10 0 17 8 17 9
0 23 -40 42 -122z m24 40 c12 -40 28 -102 37 -137 9 -36 25 -82 36 -103 19
-36 19 -38 1 -38 -22 0 -42 51 -77 205 -14 61 -28 118 -31 128 -3 9 -1 17 4
17 5 0 19 -33 30 -72z m290 -28 c16 -47 33 -93 37 -102 14 -34 -13 -18 -30 18
-27 57 -64 172 -57 178 10 11 20 -8 50 -94z m-227 -70 c22 -69 46 -134 54
-144 19 -24 19 -36 2 -36 -19 0 -51 77 -90 220 -44 157 -20 129 34 -40z m195
58 c29 -85 49 -118 71 -118 12 0 14 -3 6 -11 -14 -14 -47 3 -67 34 -26 40 -74
186 -62 190 14 5 23 -10 52 -95z m-170 -39 c26 -66 57 -136 70 -155 21 -30 21
-34 6 -34 -25 0 -48 43 -91 173 -21 61 -42 121 -46 131 -6 13 -5 17 3 12 6 -3
32 -61 58 -127z m-3538 -50 c105 -168 132 -224 139 -295 6 -54 -17 -153 -40
-172 -14 -12 -187 -42 -199 -35 -9 5 -10 598 -2 631 4 12 7 21 9 20 1 -2 43
-69 93 -149z m-2829 22 c105 -33 181 -103 233 -216 34 -75 33 -208 -4 -287
-31 -68 -93 -138 -153 -173 -99 -57 -56 -56 -1346 -53 l-1184 3 -57 23 c-81
33 -160 108 -200 190 -31 62 -33 74 -32 162 0 74 5 105 21 140 49 107 127 177
232 211 52 17 131 18 1243 18 1137 1 1189 0 1247 -18z m4571 -151 c0 -5 -2
-10 -4 -10 -3 0 -8 5 -11 10 -3 6 -1 10 4 10 6 0 11 -4 11 -10z m2025 -20 c10
-11 14 -20 8 -20 -5 0 -18 9 -28 20 -10 11 -14 20 -8 20 5 0 18 -9 28 -20z
m55 -5 c15 -16 19 -25 10 -25 -15 0 -50 29 -50 42 0 15 16 8 40 -17z m-2920 5
c0 -5 -4 -10 -10 -10 -5 0 -10 5 -10 10 0 6 5 10 10 10 6 0 10 -4 10 -10z
m3038 -25 l37 -36 -34 13 c-19 8 -41 24 -49 36 -23 34 3 27 46 -13z m689 -57
c-3 -8 -6 -5 -6 6 -1 11 2 17 5 13 3 -3 4 -12 1 -19z m-3144 -145 c-15 -3 -20
-9 -17 -21 5 -14 4 -14 -4 -2 -14 19 -6 30 21 29 l22 -2 -22 -4z m4297 -244
c0 -10 -5 -21 -11 -25 -8 -5 -10 1 -7 19 3 16 1 25 -6 24 -19 -3 -25 -19 -14
-37 6 -10 8 -26 4 -36 -8 -18 -9 -18 -17 3 -4 12 -6 31 -4 42 3 18 1 19 -15 9
-12 -8 -15 -15 -9 -19 6 -3 10 -8 9 -10 -1 -2 2 -12 5 -21 7 -17 -1 -55 -9
-47 -2 2 -6 15 -8 29 -4 31 -18 42 -35 28 -8 -6 -13 -7 -13 -1 0 6 23 26 52
46 54 38 78 37 78 -4z m-2875 -137 c42 -135 42 -251 2 -334 -36 -74 -128 -199
-169 -230 -41 -31 -118 -71 -125 -64 -9 9 7 24 60 54 72 41 149 127 194 219
53 108 56 182 13 316 -28 87 -32 137 -12 137 4 0 21 -44 37 -98z m2772 84 c-3
-8 -3 -17 1 -20 11 -11 12 -46 2 -46 -6 0 -10 12 -10 27 0 20 -3 24 -12 15 -6
-6 -11 -26 -11 -44 0 -18 -2 -25 -4 -15 -3 9 -9 15 -14 12 -13 -9 -11 2 7 37
9 16 11 27 5 23 -17 -10 -51 -86 -51 -112 0 -13 -4 -23 -9 -23 -5 0 -5 20 0
45 9 51 47 108 66 101 7 -3 15 -1 18 4 9 15 18 12 12 -4z m-104 -68 c-7 -41
-23 -61 -23 -29 0 22 16 61 25 61 3 0 2 -15 -2 -32z m-2725 0 c-2 -6 -10 -14
-16 -16 -7 -2 -10 2 -6 12 7 18 28 22 22 4z m12 -32 c0 -8 -13 -24 -30 -36
-35 -25 -39 -14 -9 24 23 29 39 34 39 12z m2764 6 c2 -4 1 -14 -3 -21 -6 -9
-10 -7 -14 8 -5 20 7 29 17 13z m-2749 -41 c3 -5 -15 -23 -40 -40 -52 -35 -60
-23 -14 20 33 31 44 35 54 20z m8 -35 c4 -9 -13 -28 -49 -52 -30 -20 -52 -39
-50 -41 2 -3 27 12 54 32 33 23 53 32 57 25 4 -6 5 -13 4 -14 -2 -2 -35 -27
-73 -55 -64 -49 -95 -61 -66 -26 7 8 14 25 15 38 1 12 3 25 4 29 1 6 90 76 97
78 1 0 4 -6 7 -14z m-24 -124 c-53 -46 -122 -93 -128 -87 -7 8 31 45 99 96 73
55 96 48 29 -9z m40 -4 c0 -13 -122 -112 -165 -136 -50 -27 -11 20 70 84 84
66 96 73 95 52z m-9 -50 c0 -15 -109 -106 -164 -139 -34 -20 -45 -17 -28 7 4
6 32 29 62 51 30 23 69 53 85 67 34 28 45 32 45 14z m-390 -28 c0 -5 -4 -10
-10 -10 -5 0 -10 5 -10 10 0 6 5 10 10 10 6 0 10 -4 10 -10z m369 -32 c-13
-27 -99 -100 -158 -133 -64 -37 -53 -2 13 40 30 19 75 53 101 75 53 46 58 48
44 18z m-29 -58 c0 -5 -16 -28 -36 -50 -20 -22 -33 -40 -28 -40 18 0 -55 -64
-98 -86 -74 -38 -56 -10 23 36 39 23 68 44 65 47 -3 3 -17 -4 -33 -15 -15 -10
-43 -27 -61 -36 -33 -17 -33 -17 -23 3 6 10 41 40 79 65 37 24 76 54 86 65 21
24 26 25 26 11z m246 -483 c47 -51 94 -127 109 -174 5 -18 2 -23 -13 -23 -13
0 -26 16 -41 50 -13 28 -43 77 -68 110 -41 55 -48 60 -84 60 -55 0 -128 -30
-222 -92 -103 -67 -177 -103 -177 -85 0 7 33 31 73 52 39 21 97 55 127 75 69
47 153 79 206 79 38 1 46 -4 90 -52z m-26 -39 c36 -46 90 -137 90 -153 0 -3
-8 -5 -17 -5 -12 1 -35 31 -68 90 -44 79 -53 90 -77 90 -43 0 -132 -37 -200
-84 -73 -50 -161 -96 -183 -96 -30 0 -14 16 43 44 31 15 91 50 133 77 79 52
166 88 211 89 20 0 36 -12 68 -52z m-2 -73 c23 -41 42 -77 42 -80 0 -3 -8 -5
-19 -5 -13 0 -24 14 -36 46 -9 25 -19 43 -22 41 -2 -3 3 -22 12 -42 8 -21 13
-40 11 -43 -8 -7 -26 9 -26 23 0 26 -48 29 -108 5 -116 -45 -136 -36 -33 15
29 15 71 28 92 29 45 1 54 16 10 16 -39 0 -106 -25 -161 -60 -75 -48 -93 -36
-20 13 95 64 201 96 213 65 3 -8 6 -7 6 4 2 48 -114 17 -235 -62 -42 -28 -88
-50 -102 -50 -22 0 -18 5 29 33 30 19 77 48 105 66 63 40 118 60 164 60 33 1
37 -3 78 -74z m-45 -69 c4 -11 -9 -14 -66 -14 -69 -1 -71 0 -42 13 40 18 101
19 108 1z m1565 -243 c17 -18 21 -28 12 -31 -7 -3 -16 2 -21 9 -6 10 -9 7 -9
-11 0 -14 9 -33 20 -43 27 -23 25 -49 -5 -75 l-25 -22 -25 22 c-25 22 -33 48
-15 48 5 0 14 -8 19 -17 9 -15 10 -13 11 12 0 20 -7 35 -20 43 -12 7 -20 23
-20 38 0 17 7 28 20 31 11 3 20 9 20 14 0 16 12 10 38 -18z m-4298 1 c0 -17
-22 -14 -28 4 -2 7 3 12 12 12 9 0 16 -7 16 -16z m1260 -69 c0 -50 -4 -85 -10
-85 -6 0 -10 35 -10 85 0 50 4 85 10 85 6 0 10 -35 10 -85z m58 74 c-2 -6 -8
-10 -13 -10 -5 0 -11 4 -13 10 -2 6 4 11 13 11 9 0 15 -5 13 -11z m272 -73 l0
-84 -47 2 c-40 1 -50 5 -62 28 -14 25 -14 29 6 55 16 21 29 28 52 27 28 -2 31
1 31 27 0 16 5 29 10 29 6 0 10 -35 10 -84z m118 72 c-6 -18 -28 -21 -28 -4 0
9 7 16 16 16 9 0 14 -5 12 -12z m1000 0 c-6 -18 -28 -21 -28 -4 0 9 7 16 16
16 9 0 14 -5 12 -12z m190 0 c-6 -18 -28 -21 -28 -4 0 9 7 16 16 16 9 0 14 -5
12 -12z m1242 -71 l0 -84 -44 -1 c-29 -2 -50 3 -60 14 -40 39 0 111 55 99 27
-6 29 -5 29 24 0 17 5 31 10 31 6 0 10 -34 10 -83z m358 67 c33 -23 27 -52
-20 -95 l-43 -39 43 0 c23 0 42 -4 42 -10 0 -5 -25 -10 -55 -10 -68 0 -71 14
-15 63 47 40 54 77 16 77 -13 0 -26 -7 -30 -15 -6 -17 -26 -21 -26 -5 0 14 38
50 53 50 7 0 23 -7 35 -16z m150 -12 c18 -23 15 -102 -5 -124 -20 -22 -61 -23
-85 -1 -19 17 -26 96 -10 119 23 34 75 38 100 6z m140 0 c13 -17 16 -100 4
-119 -4 -6 -20 -17 -35 -22 -66 -25 -107 90 -52 145 27 27 59 26 83 -4z m393
18 c23 -13 25 -37 4 -60 -14 -15 -14 -18 0 -30 12 -10 18 -10 30 0 20 17 32 5
15 -15 -11 -13 -10 -19 5 -35 14 -16 15 -20 4 -20 -8 0 -20 5 -27 12 -9 9 -15
9 -24 0 -7 -7 -24 -12 -38 -12 -14 0 -31 5 -38 12 -16 16 -15 53 2 67 7 6 11
22 8 36 -4 25 12 55 30 55 5 0 18 -5 29 -10z m224 -21 c17 -16 17 -19 3 -19
-9 0 -20 5 -23 10 -10 16 -62 12 -79 -6 -21 -20 -20 -63 1 -86 20 -22 60 -23
84 -2 9 8 20 11 23 6 7 -12 -23 -39 -49 -43 -95 -14 -142 102 -62 152 36 22
71 18 102 -12z m585 -53 l0 -83 -50 -2 c-54 -1 -70 13 -70 63 0 31 40 61 70
51 17 -5 20 -2 20 24 0 21 5 31 15 31 12 0 15 -16 15 -84z m480 -1 c0 -50 -4
-85 -10 -85 -6 0 -10 35 -10 85 0 50 4 85 10 85 6 0 10 -35 10 -85z m291 70
c-1 -15 -24 -12 -29 3 -3 9 2 13 12 10 10 -1 17 -7 17 -13z m919 -70 c0 -69
-3 -85 -15 -85 -12 0 -15 16 -15 85 0 69 3 85 15 85 12 0 15 -16 15 -85z
m-7755 50 c54 -53 15 -135 -65 -135 l-40 0 0 80 0 80 40 0 c30 0 47 -7 65 -25z
m2610 -11 l28 -36 32 37 c33 40 53 41 49 3 -1 -13 -3 -47 -3 -75 -1 -72 -21
-67 -21 5 l-1 57 -28 -34 -28 -34 -26 34 -27 34 0 -57 c0 -45 -3 -58 -15 -58
-12 0 -15 16 -15 80 0 93 11 102 55 44z m1845 -44 c0 -47 -4 -80 -10 -80 -6 0
-10 30 -10 70 0 57 -3 70 -16 70 -8 0 -12 5 -9 10 3 6 15 10 26 10 17 0 19 -7
19 -80z m720 70 c0 -5 -11 -10 -25 -10 -24 0 -25 -2 -25 -70 0 -56 -3 -70 -15
-70 -12 0 -15 14 -15 70 0 68 -1 70 -25 70 -14 0 -25 5 -25 10 0 6 28 10 65
10 37 0 65 -4 65 -10z m-4381 -30 c6 0 11 -7 11 -15 0 -8 -7 -15 -15 -15 -10
0 -15 -11 -15 -35 0 -24 5 -35 15 -35 8 0 15 -4 15 -10 0 -5 -9 -10 -20 -10
-22 0 -40 28 -40 62 0 13 -5 29 -11 35 -8 8 -6 17 8 32 16 19 19 20 29 6 6 -8
16 -15 23 -15z m1591 15 c0 -8 6 -15 14 -15 24 0 30 -21 7 -27 -29 -7 -30 -63
-1 -70 30 -8 24 -25 -7 -21 -25 3 -28 8 -31 45 -3 45 -15 55 -49 42 -19 -7
-23 -16 -23 -49 0 -22 -4 -40 -10 -40 -6 0 -10 26 -10 59 l0 59 33 -2 c41 -3
57 3 57 20 0 8 5 14 10 14 6 0 10 -7 10 -15z m-2310 -81 c0 -30 -4 -54 -9 -54
-12 0 -17 43 -12 87 5 52 21 27 21 -33z m101 49 c13 -15 11 -16 -13 -10 -39
10 -44 -9 -8 -28 23 -12 30 -22 28 -38 -4 -28 -58 -36 -78 -12 -12 15 -10 16
23 10 45 -9 50 8 7 24 -22 7 -30 16 -30 35 0 37 47 49 71 19z m123 2 c25 -19
12 -33 -15 -17 -27 17 -59 -1 -59 -33 0 -28 41 -45 64 -26 17 14 29 2 15 -16
-14 -16 -71 -17 -87 -1 -21 21 -15 75 10 92 28 20 47 20 72 1z m140 -18 c19
-26 19 -30 5 -55 -20 -37 -80 -43 -103 -10 -22 31 -20 45 9 74 31 31 61 28 89
-9z m58 -14 c2 -37 7 -49 22 -51 24 -5 36 14 36 61 0 23 4 36 10 32 6 -3 10
-30 10 -59 l0 -53 -37 -1 c-50 -2 -63 12 -63 69 0 63 18 64 22 2z m202 25 c21
-30 21 -98 1 -98 -11 0 -15 12 -15 44 0 27 -5 46 -12 49 -27 9 -38 -6 -38 -49
0 -32 -4 -44 -15 -44 -11 0 -15 13 -15 53 0 30 2 56 4 58 3 2 20 5 40 6 26 2
39 -2 50 -19z m294 -40 l3 -55 -50 -1 c-40 -1 -53 2 -61 18 -29 54 4 101 69
96 l36 -4 3 -54z m52 52 c0 -7 6 -7 19 0 28 14 38 13 61 -10 42 -42 10 -107
-50 -98 -27 4 -30 2 -30 -24 0 -15 -4 -28 -10 -28 -6 0 -10 35 -10 85 0 50 4
85 10 85 6 0 10 -5 10 -10z m224 -9 c18 -15 21 -53 6 -82 -8 -13 -21 -19 -45
-19 -31 0 -35 -3 -35 -25 0 -16 -6 -25 -15 -25 -12 0 -15 15 -15 78 0 43 2 81
4 83 10 10 85 3 100 -10z m126 -47 c0 -41 -4 -54 -15 -54 -11 0 -15 13 -15 53
0 30 3 57 6 60 15 15 24 -8 24 -59z m120 46 c34 -34 26 -50 -26 -50 -32 0 -44
-4 -41 -12 2 -8 20 -13 41 -12 48 2 42 -20 -6 -24 -59 -5 -89 57 -48 98 11 11
29 20 40 20 11 0 29 -9 40 -20z m260 -40 c0 -33 -4 -60 -10 -60 -6 0 -10 27
-10 60 0 33 4 60 10 60 6 0 10 -27 10 -60z m131 39 c12 -19 11 -99 -1 -99 -5
0 -10 14 -10 31 0 47 -17 72 -40 59 -15 -8 -20 -21 -20 -50 0 -22 -4 -40 -10
-40 -6 0 -10 26 -10 59 l0 59 41 -2 c22 -1 45 -9 50 -17z m185 7 c24 -18 13
-31 -15 -16 -47 25 -83 -36 -39 -64 13 -8 23 -8 37 1 23 14 35 5 20 -14 -14
-16 -71 -17 -87 -1 -21 21 -15 75 10 92 28 20 49 20 74 2z m145 -1 c0 -5 2
-31 3 -56 l2 -47 -45 0 c-54 -2 -71 11 -71 51 0 44 24 66 71 64 21 -1 39 -6
40 -12z m539 -45 c0 -33 -4 -60 -10 -60 -6 0 -10 27 -10 60 0 33 4 60 10 60 6
0 10 -27 10 -60z m128 46 c14 -9 17 -106 2 -106 -5 0 -10 17 -10 38 0 46 -15
65 -42 51 -13 -7 -18 -21 -18 -49 0 -22 -4 -40 -10 -40 -6 0 -10 26 -10 59 l0
59 38 -2 c20 -1 43 -5 50 -10z m62 -46 c0 -33 -4 -60 -10 -60 -6 0 -10 27 -10
60 0 33 4 60 10 60 6 0 10 -27 10 -60z m115 50 c4 -7 13 -6 25 0 26 14 36 13
54 -6 22 -21 22 -104 1 -104 -11 0 -15 12 -15 44 0 25 -4 47 -9 51 -17 10 -41
-26 -41 -61 0 -19 -4 -34 -10 -34 -5 0 -10 20 -10 43 0 51 -6 60 -31 46 -14
-7 -19 -21 -19 -49 0 -22 -4 -40 -10 -40 -6 0 -10 26 -10 58 l0 59 35 1 c19 1
37 -3 40 -8z m147 -37 c3 -40 6 -48 23 -48 16 0 21 8 25 45 7 62 24 52 28 -15
l3 -55 -44 0 c-51 0 -57 8 -57 76 0 59 18 56 22 -3z m193 37 c6 -2 18 0 27 4
9 4 26 3 37 -4 17 -9 21 -20 21 -60 0 -28 -4 -50 -10 -50 -5 0 -10 17 -10 38
0 41 -15 63 -36 55 -9 -3 -14 -21 -14 -49 0 -32 -4 -44 -15 -44 -11 0 -15 12
-15 44 0 25 -4 47 -9 51 -17 10 -41 -26 -41 -61 0 -19 -4 -34 -10 -34 -6 0
-10 26 -10 59 l0 59 38 -3 c20 -1 42 -3 47 -5z m229 4 c26 -10 18 -27 -9 -20
-32 8 -34 -15 -2 -29 14 -7 22 -19 22 -35 0 -22 -4 -25 -34 -25 -19 0 -36 6
-38 12 -3 9 4 11 26 7 38 -8 42 12 6 26 -34 13 -43 39 -20 56 21 16 27 17 49
8z m66 -5 c0 -8 5 -8 15 1 21 18 64 4 77 -25 22 -48 -30 -107 -74 -83 -15 7
-18 4 -18 -22 0 -16 -4 -30 -10 -30 -6 0 -10 35 -10 85 0 50 4 85 10 85 6 0
10 -5 10 -11z m208 -5 c12 -8 22 -24 22 -35 0 -16 -7 -19 -46 -19 -32 0 -44
-4 -41 -12 2 -8 19 -13 41 -12 40 1 48 -12 14 -25 -30 -11 -55 -3 -73 22 -20
28 -19 39 6 71 23 30 45 33 77 10z m138 -8 c19 -27 19 -96 -1 -96 -11 0 -15
11 -15 43 0 51 -6 60 -31 46 -14 -7 -19 -21 -19 -49 0 -29 -4 -40 -15 -40 -11
0 -15 13 -15 53 0 30 2 56 4 58 2 2 21 4 41 4 25 0 41 -6 51 -19z m1522 5 c3
-9 -1 -11 -16 -7 -34 11 -35 -12 -2 -29 23 -12 30 -22 28 -38 -4 -29 -58 -36
-79 -11 -12 15 -11 16 19 10 39 -9 44 10 7 24 -27 10 -36 54 -12 64 20 8 50 2
55 -13z m200 -43 l3 -55 -45 -1 c-51 -2 -76 16 -76 54 0 38 33 64 77 60 l38
-4 3 -54z m119 51 c15 -13 18 -109 3 -109 -5 0 -10 20 -10 45 0 41 -2 45 -24
45 -24 0 -36 -21 -36 -67 0 -13 -4 -23 -10 -23 -9 0 -15 102 -6 111 10 9 71 8
83 -2z m331 -5 c12 -8 22 -24 22 -35 0 -16 -7 -19 -46 -19 -32 0 -44 -4 -42
-12 6 -17 46 -22 62 -9 17 14 29 2 15 -16 -15 -18 -74 -17 -89 2 -20 24 -15
67 10 87 27 22 39 22 68 2z m67 -4 l18 -20 24 22 c30 28 41 16 14 -18 l-21
-26 21 -26 c13 -17 16 -28 9 -30 -6 -2 -19 6 -27 18 l-16 23 -17 -23 c-9 -12
-23 -21 -29 -19 -9 3 -6 13 9 32 l22 28 -21 23 c-11 12 -21 25 -21 29 0 13 17
7 35 -13z m181 6 c23 -17 13 -32 -12 -18 -38 21 -81 -21 -54 -53 14 -17 46
-20 55 -5 9 15 25 12 25 -4 0 -8 -7 -17 -16 -20 -69 -27 -125 43 -74 94 24 24
49 25 76 6z m144 -86 c21 0 30 19 30 66 0 19 5 34 10 34 6 0 10 -26 10 -58 l0
-59 -37 -1 c-49 -2 -63 12 -63 63 0 61 14 65 23 6 7 -40 13 -51 27 -51z m151
83 c13 -15 11 -16 -13 -10 -37 10 -45 -9 -11 -25 20 -9 28 -21 28 -38 0 -22
-4 -25 -34 -25 -19 0 -36 6 -38 12 -3 9 4 11 26 7 37 -8 41 8 6 24 -31 14 -41
37 -25 57 16 20 44 19 61 -2z m59 -43 c0 -33 -4 -60 -10 -60 -6 0 -10 27 -10
60 0 33 4 60 10 60 6 0 10 -27 10 -60z m134 27 c19 -26 19 -30 5 -55 -18 -33
-77 -43 -99 -17 -20 24 -15 67 10 87 30 25 58 20 84 -15z m123 22 c15 -13 18
-109 3 -109 -5 0 -10 20 -10 44 0 27 -5 46 -12 49 -27 9 -38 -6 -38 -49 0 -32
-4 -44 -15 -44 -11 0 -15 13 -15 53 0 30 2 56 4 58 10 9 71 8 83 -2z m114 -6
c13 -15 11 -16 -13 -10 -37 10 -45 -9 -11 -25 20 -9 28 -21 28 -38 0 -22 -4
-25 -34 -25 -19 0 -36 6 -38 12 -3 9 4 11 26 7 37 -8 41 8 6 24 -31 14 -41 37
-25 57 16 20 44 19 61 -2z m199 -44 l0 -56 -44 -1 c-36 -2 -48 2 -60 20 -21
29 -20 40 4 71 17 21 28 26 60 24 l40 -1 0 -57z m132 43 c22 -25 26 -44 17
-70 -10 -27 -47 -43 -71 -30 -15 7 -18 4 -18 -22 0 -16 -4 -30 -10 -30 -6 0
-10 34 -10 83 l0 82 39 2 c26 2 43 -3 53 -15z m68 6 c0 -9 3 -9 12 0 18 18 45
15 68 -8 42 -42 10 -107 -50 -98 -27 4 -30 2 -30 -24 0 -15 -4 -28 -10 -28 -6
0 -10 35 -10 85 0 50 4 85 10 85 6 0 10 -5 10 -12z m209 -36 l19 -37 17 43
c17 42 35 56 35 27 0 -23 -69 -155 -80 -155 -13 0 -12 4 1 32 8 19 6 34 -10
72 -34 77 -19 91 18 18z m-5341 -59 c2 -8 -5 -13 -17 -13 -12 0 -21 6 -21 16
0 18 31 15 38 -3z m2455 2 c1 -5 -6 -11 -15 -13 -11 -2 -18 3 -18 13 0 17 30
18 33 0z m2997 0 c0 -8 -7 -15 -15 -15 -8 0 -15 7 -15 15 0 8 7 15 15 15 8 0
15 -7 15 -15z"/>
<path d="M8992 3907 c-11 -13 -3 -14 62 -13 79 1 79 13 -2 23 -35 4 -51 1 -60
-10z"/>
<path d="M8900 3851 c19 -4 51 -16 70 -25 58 -30 181 -135 245 -209 77 -89
245 -278 301 -340 70 -76 158 -190 199 -257 25 -41 41 -58 48 -51 24 24 -140
238 -372 487 -42 44 -114 122 -160 173 -86 95 -191 186 -248 215 -18 9 -51 15
-75 15 l-43 -1 35 -7z"/>
<path d="M10507 2889 c7 -7 15 -10 18 -7 3 3 -2 9 -12 12 -14 6 -15 5 -6 -5z"/>
<path d="M10912 2792 c-17 -32 -22 -71 -11 -77 13 -9 59 33 59 54 0 9 -9 22
-20 28 -16 11 -21 10 -28 -5z"/>
<path d="M10533 2376 c0 -15 22 -15 34 0 4 5 4 6 -1 2 -5 -4 -14 -3 -21 2 -8
7 -12 5 -12 -4z"/>
<path d="M10466 2238 c3 -5 10 -6 15 -3 13 9 11 12 -6 12 -8 0 -12 -4 -9 -9z"/>
<path d="M10426 2221 c-3 -4 1 -17 9 -27 15 -19 15 -19 8 0 -4 13 -3 17 5 12
7 -4 12 -3 12 2 0 13 -28 23 -34 13z"/>
<path d="M9925 2100 c-3 -5 -1 -10 4 -10 6 0 11 5 11 10 0 6 -2 10 -4 10 -3 0
-8 -4 -11 -10z"/>
<path d="M12176 6192 c-4 -7 -12 -10 -17 -6 -5 3 -8 0 -7 -8 3 -15 -21 -16
-66 -3 -22 6 -32 4 -41 -9 -8 -10 -27 -16 -54 -16 -32 0 -48 -6 -65 -25 -13
-14 -28 -25 -35 -25 -6 0 -17 -11 -23 -25 -14 -31 -43 -34 -35 -4 5 18 3 17
-18 -5 -13 -14 -31 -26 -40 -26 -8 0 -14 -3 -14 -7 3 -20 -2 -34 -11 -28 -5 3
-7 12 -3 20 3 8 1 15 -5 15 -5 0 -9 -10 -8 -22 1 -21 -3 -23 -51 -23 -28 0
-49 -3 -47 -6 2 -4 -10 -9 -26 -11 -22 -3 -30 0 -31 11 0 11 -2 12 -6 4 -2 -7
-11 -13 -18 -13 -7 0 -15 -5 -17 -11 -2 -5 -12 -12 -23 -14 -11 -2 -22 -4 -25
-6 -3 -1 -9 -3 -15 -3 -5 -1 -31 -22 -57 -48 l-46 -47 46 -6 c66 -9 156 -43
202 -76 21 -15 53 -49 71 -76 17 -26 43 -60 56 -74 30 -32 41 -120 24 -189
-11 -45 -10 -45 26 -77 23 -20 40 -28 44 -21 4 6 12 7 18 3 7 -4 22 0 35 9 23
14 24 14 29 -11 9 -50 -19 -74 -56 -48 -12 8 -34 15 -49 15 -14 0 -38 4 -53
10 -20 7 -34 6 -57 -6 -38 -20 -77 -63 -78 -86 0 -10 -9 -22 -20 -28 -11 -6
-20 -17 -20 -25 0 -8 9 -15 20 -15 11 0 20 -5 20 -11 0 -7 8 -18 18 -25 10 -8
12 -13 5 -14 -7 0 -13 -4 -13 -10 0 -5 7 -7 15 -4 8 4 15 2 15 -4 0 -6 -6 -12
-12 -15 -10 -3 -9 -8 2 -22 9 -11 10 -16 3 -11 -7 4 -13 3 -13 -2 0 -5 -13
-12 -30 -15 -55 -12 -32 -27 43 -28 139 -3 190 8 166 37 -9 11 -8 14 5 14 11
0 16 9 16 28 0 15 9 38 20 52 11 14 20 31 20 38 0 7 5 10 10 7 13 -8 13 -80 0
-126 -8 -30 -21 -41 -80 -75 -56 -31 -70 -44 -71 -64 -1 -22 -2 -23 -7 -5 -6
18 -16 20 -106 20 l-99 0 -4 -28 c-2 -18 0 -26 7 -22 5 3 10 3 11 -2 11 -84
-4 -156 -36 -183 -12 -10 -17 -7 -26 16 -8 23 -7 36 5 62 9 18 16 39 16 47 0
24 -20 17 -30 -10 -12 -31 -55 -54 -71 -38 -8 8 -7 25 5 59 18 54 21 94 6 94
-6 0 -15 -11 -20 -25 -5 -14 -16 -25 -24 -25 -23 0 -66 -63 -66 -96 0 -16 -4
-35 -9 -43 -8 -12 -12 -12 -25 1 -32 33 -134 0 -119 -37 13 -36 -13 -36 -67 0
-8 6 -24 10 -35 10 -18 0 -21 9 -26 80 -6 82 -13 120 -31 168 -10 27 -28 37
-28 16 0 -5 -4 -8 -8 -5 -9 5 8 -108 28 -199 20 -90 29 -198 20 -240 -13 -53
-12 -65 2 -65 6 0 20 -8 30 -17 16 -14 21 -15 28 -4 6 11 11 9 20 -9 17 -32
28 -14 32 50 2 41 7 55 18 55 8 0 13 -7 11 -15 -5 -22 -1 -100 7 -137 5 -25
10 -30 21 -24 11 7 12 15 3 38 -16 44 -14 209 3 223 18 15 18 10 5 -24 -12
-32 -5 -52 21 -59 11 -3 18 -13 18 -24 -1 -15 -2 -16 -6 -1 -2 9 -13 16 -24
15 -26 -2 -26 -37 0 -37 11 0 23 -6 28 -12 5 -9 9 -3 13 17 5 28 9 30 53 33
55 4 57 -1 26 -83 -16 -43 -19 -67 -14 -110 5 -37 4 -55 -3 -55 -17 0 -26 -68
-12 -85 18 -22 30 -9 30 34 0 20 5 42 11 48 5 5 13 37 16 69 3 32 11 66 18 74
18 23 38 97 32 114 -4 10 -1 16 8 16 23 0 18 20 -7 30 -19 7 -20 9 -4 9 12 1
16 6 12 17 -3 9 -6 18 -6 20 0 2 -10 5 -22 5 -19 1 -19 2 -5 6 13 3 16 10 11
21 -4 10 -9 36 -12 60 -5 50 9 55 51 16 28 -25 29 -35 12 -77 -6 -14 -3 -16
11 -11 18 5 18 5 1 -6 -9 -6 -22 -8 -27 -5 -12 7 -12 -12 0 -40 8 -18 9 -18 9
-2 1 14 5 16 18 9 12 -7 27 -3 55 14 21 13 44 24 53 24 20 0 55 -72 55 -115 0
-30 3 -35 18 -31 12 4 33 -9 67 -44 27 -28 57 -50 66 -50 9 0 22 -7 29 -15 7
-8 18 -15 24 -15 14 0 56 -64 56 -86 0 -8 5 -24 10 -34 6 -11 20 -84 31 -162
31 -217 16 -587 -27 -670 -8 -15 -14 -29 -14 -32 0 -2 24 -19 53 -36 28 -18
68 -46 88 -61 20 -16 41 -29 45 -29 5 0 8 52 6 115 -2 63 -7 115 -13 115 -5 0
-9 -13 -9 -29 0 -49 -12 -91 -26 -91 -19 0 -25 15 -26 70 -1 32 -6 50 -14 50
-17 0 -24 51 -22 175 1 61 3 100 5 88 3 -13 9 -23 14 -23 5 0 9 -11 9 -24 0
-13 3 -32 6 -41 5 -13 8 -14 15 -3 6 9 9 7 9 -9 0 -13 6 -23 14 -23 10 0 16
18 21 58 6 60 9 48 -88 417 -19 72 -36 135 -37 140 -7 29 3 53 30 68 29 17 29
17 46 -8 9 -14 21 -25 28 -24 7 0 6 2 -2 6 -6 2 -9 9 -6 14 13 22 41 -37 40
-83 -1 -27 2 -48 6 -48 3 0 9 -35 11 -77 7 -114 29 -293 36 -293 3 1 21 35 40
76 19 41 60 115 92 164 31 48 60 103 64 121 9 40 43 95 80 129 15 14 50 58 77
99 28 41 65 91 84 110 19 20 34 40 34 45 0 10 43 -17 71 -45 24 -24 45 -24 66
1 20 24 46 26 63 6 6 -8 24 -16 38 -18 16 -2 26 -8 24 -16 -2 -10 2 -10 18 -2
13 7 20 7 20 0 0 -5 8 -10 18 -10 10 0 24 -6 32 -12 11 -10 11 -9 0 6 -14 18
-13 19 3 13 15 -6 16 -4 7 13 -12 22 -6 40 13 40 7 0 18 9 25 20 9 15 22 20
47 18 19 -1 37 1 41 5 4 4 -2 7 -14 7 -23 0 -29 19 -13 36 5 5 11 20 13 34 4
31 27 60 48 60 12 -1 12 -3 -2 -14 -10 -7 -18 -16 -18 -20 0 -7 44 -1 60 9 5
3 10 0 10 -8 0 -14 -27 -32 -42 -29 -4 1 -5 -5 -1 -13 3 -10 9 -12 17 -6 7 6
18 4 30 -5 19 -13 19 -15 2 -27 -11 -8 -15 -19 -10 -30 6 -15 8 -14 20 9 16
30 9 68 -9 58 -7 -4 -8 -3 -4 2 5 5 14 9 20 9 7 0 12 10 11 23 0 12 3 22 8 22
4 0 9 -10 9 -22 1 -17 2 -19 6 -5 2 9 13 17 24 17 10 0 28 9 38 19 20 20 20
20 0 26 -19 6 -21 10 -24 56 -3 33 -12 49 -31 49 -8 0 -14 5 -14 10 0 6 6 10
13 9 34 -4 40 1 24 19 -18 20 -22 42 -8 42 5 0 11 -6 14 -13 3 -8 16 -13 29
-11 33 3 35 5 16 12 -13 5 -15 11 -8 22 9 13 11 13 20 0 8 -13 10 -12 10 3 0
9 5 17 10 17 6 0 10 -5 10 -12 0 -6 6 -3 14 7 17 24 10 41 -10 24 -9 -7 -14
-8 -14 -1 0 6 4 13 10 17 11 7 1 37 -17 48 -14 9 -18 57 -5 57 5 0 13 -12 19
-27 10 -25 11 -26 12 -6 1 12 -4 25 -9 28 -6 4 -8 11 -5 16 3 5 -2 6 -11 2
-12 -4 -15 -3 -10 5 4 7 4 12 -1 12 -4 0 -8 12 -9 28 0 15 -4 35 -8 45 -6 13
-3 17 12 17 15 0 20 -5 17 -20 -2 -11 0 -20 6 -20 5 0 9 13 9 28 0 25 -3 28
-28 26 -20 -1 -29 3 -29 13 0 10 8 13 24 10 13 -2 23 0 23 4 0 5 -7 9 -15 9
-8 0 -15 5 -15 12 0 6 -7 20 -17 30 -9 11 -11 18 -5 18 7 0 12 9 12 21 0 15
-5 19 -19 14 -13 -4 -23 2 -35 19 -8 14 -12 27 -7 30 10 7 8 52 -4 81 -5 11
-19 30 -32 42 -13 12 -23 24 -23 27 0 3 -16 22 -35 43 -19 21 -35 45 -36 53 0
10 -2 11 -6 2 -2 -6 -9 -10 -14 -6 -14 8 -11 24 6 24 12 0 11 7 -7 35 -13 19
-31 37 -40 41 -10 3 -18 12 -18 20 0 8 -4 14 -10 14 -5 0 -10 6 -10 13 0 17
-34 49 -43 42 -4 -3 -5 -2 -3 1 4 6 -30 44 -39 44 -2 0 -2 -7 1 -15 4 -10 0
-13 -16 -10 -28 5 -39 15 -17 15 10 0 17 5 17 10 0 6 -9 10 -20 10 -11 0 -20
7 -20 15 0 8 -4 15 -8 15 -5 0 -19 9 -32 20 -13 12 -31 18 -39 15 -9 -3 -12
-3 -9 1 12 11 -11 44 -31 44 -10 0 -29 8 -42 19 -13 10 -34 21 -46 25 -13 4
-23 14 -23 22 0 8 -4 13 -9 10 -4 -3 -30 10 -57 29 -27 19 -57 35 -66 35 -10
0 -34 18 -54 40 -20 22 -41 40 -47 40 -5 0 2 -9 17 -21 29 -23 34 -39 10 -39
-8 0 -13 4 -10 8 3 5 -8 6 -25 4 -18 -3 -29 0 -29 8 0 8 -10 11 -29 8 -22 -3
-28 -1 -23 10 4 11 -2 13 -27 7 -20 -4 -37 -2 -46 5 -8 6 -18 9 -24 6 -5 -3
-11 -1 -13 6 -3 9 -6 9 -12 0z m-91 -32 c3 -5 -1 -10 -9 -10 -9 0 -16 5 -16
10 0 6 4 10 9 10 6 0 13 -4 16 -10z m100 0 c-3 -5 -11 -10 -16 -10 -6 0 -7 5
-4 10 3 6 11 10 16 10 6 0 7 -4 4 -10z m60 -10 c3 -5 1 -10 -4 -10 -6 0 -11 5
-11 10 0 6 2 10 4 10 3 0 8 -4 11 -10z m-278 -27 c-9 -9 -20 -13 -24 -9 -4 4
-1 11 7 16 25 16 35 11 17 -7z m156 -284 c20 -5 37 -14 37 -19 0 -5 12 -15 27
-22 14 -7 30 -21 35 -30 4 -10 12 -26 18 -35 5 -10 21 -40 34 -68 29 -57 24
-64 -39 -65 -53 -1 -78 -20 -67 -50 6 -16 4 -33 -5 -51 -8 -15 -12 -40 -9 -56
2 -15 5 -34 5 -40 2 -21 77 -53 140 -59 l58 -7 32 -62 c17 -35 31 -66 31 -70
0 -3 -16 -13 -35 -21 -26 -11 -35 -20 -35 -38 0 -14 5 -26 11 -28 14 -5 -4
-94 -27 -140 -8 -15 -14 -37 -14 -48 0 -31 -30 -90 -45 -90 -7 0 -35 -9 -62
-21 -49 -20 -50 -20 -104 -1 -41 14 -55 24 -57 40 -2 12 -7 20 -11 18 -4 -3
-8 6 -9 20 -1 19 3 24 21 24 24 0 102 59 79 60 -7 0 -10 5 -6 12 4 6 3 8 -2 5
-6 -3 -16 -2 -24 4 -13 7 -12 9 3 9 9 0 17 4 17 8 0 5 -10 8 -22 7 -38 -3 -57
8 -28 16 23 6 22 7 -10 9 -19 2 -42 4 -50 5 -8 1 -25 3 -38 4 -17 1 -22 6 -20
19 2 10 11 16 21 14 9 -2 17 2 17 9 0 6 7 8 16 5 9 -4 23 -1 30 5 24 20 126
13 167 -11 40 -24 46 -40 22 -60 -17 -14 -20 -40 -6 -40 5 0 19 13 30 29 12
16 29 28 38 27 15 -1 19 10 24 64 6 61 5 67 -21 100 -26 33 -90 79 -90 65 0
-3 18 -36 40 -72 22 -37 40 -75 40 -85 0 -18 -2 -17 -40 2 -21 11 -49 20 -60
20 -42 0 -112 22 -98 31 11 7 11 9 -1 9 -11 0 -11 3 -1 15 10 12 10 18 0 30
-7 8 -18 15 -24 15 -28 0 -34 21 -21 69 31 110 29 221 -4 221 -9 0 -32 15 -50
34 -18 19 -44 37 -57 40 -28 7 -32 46 -9 86 8 14 14 34 15 46 0 23 48 73 88
90 35 16 58 16 105 3z m-195 -374 c-4 -30 -53 -28 -54 3 -1 19 3 22 28 20 23
-2 28 -7 26 -23z m365 -28 c-3 -6 -11 -3 -19 8 -7 10 -11 22 -7 28 3 6 11 3
19 -8 7 -10 11 -22 7 -28z m920 -27 c-3 -11 -7 -20 -9 -20 -2 0 -4 9 -4 20 0
11 4 20 9 20 5 0 7 -9 4 -20z m-1443 -364 c0 -2 -7 -6 -15 -10 -8 -3 -15 -1
-15 4 0 6 7 10 15 10 8 0 15 -2 15 -4z m1520 -81 c0 -8 -4 -15 -10 -15 -5 0
-7 7 -4 15 4 8 8 15 10 15 2 0 4 -7 4 -15z m-33 -77 c-3 -8 -6 -5 -6 6 -1 11
2 17 5 13 3 -3 4 -12 1 -19z m-37 -157 c0 -6 -4 -13 -10 -16 -5 -3 -10 1 -10
9 0 9 5 16 10 16 6 0 10 -4 10 -9z m-164 -48 c-10 -10 -19 5 -10 18 6 11 8 11
12 0 2 -7 1 -15 -2 -18z m-1686 -98 c-10 -12 -10 -18 0 -30 10 -12 9 -15 -4
-15 -10 0 -15 4 -12 9 4 5 1 11 -6 13 -17 6 -2 38 18 38 13 0 14 -3 4 -15z"/>
<path d="M12117 5237 c-4 -10 2 -13 19 -9 33 6 41 22 11 22 -14 0 -27 -6 -30
-13z"/>
<path d="M12310 6190 c8 -5 22 -9 30 -9 10 0 8 3 -5 9 -27 12 -43 12 -25 0z"/>
<path d="M16755 6080 c3 -5 11 -10 16 -10 6 0 7 5 4 10 -3 6 -11 10 -16 10 -6
0 -7 -4 -4 -10z"/>
<path d="M11363 5934 c-12 -13 -18 -24 -13 -24 11 0 40 29 40 41 0 12 -1 11
-27 -17z"/>
<path d="M11399 5923 c-13 -16 -12 -17 4 -4 9 7 17 15 17 17 0 8 -8 3 -21 -13z"/>
<path d="M16282 5928 c-7 -7 -12 -24 -12 -39 0 -15 -6 -30 -12 -32 -10 -4 -10
-7 0 -15 7 -5 16 -34 19 -65 4 -42 9 -54 20 -50 11 4 13 17 7 59 -6 50 -5 54
15 54 13 0 21 6 21 16 0 11 -6 15 -20 11 -16 -4 -20 0 -20 19 0 15 6 24 15 24
8 0 15 7 15 15 0 18 -31 20 -48 3z"/>
<path d="M16182 5918 c-7 -7 -12 -22 -12 -35 0 -13 -7 -26 -15 -29 -8 -4 -15
-10 -15 -15 0 -5 7 -9 15 -9 9 0 15 -9 15 -24 0 -43 12 -86 25 -86 8 0 10 16
7 55 -4 46 -2 55 12 55 9 0 16 7 16 15 0 8 -9 15 -20 15 -11 0 -20 7 -20 15 0
8 9 20 20 27 11 7 20 16 20 20 0 12 -35 9 -48 -4z"/>
<path d="M11285 5890 c-15 -29 -15 -30 5 -30 11 0 20 4 20 9 0 5 12 12 28 14
25 4 25 4 -5 6 -35 1 -45 17 -15 24 16 4 16 5 0 6 -10 0 -24 -12 -33 -29z"/>
<path d="M15756 5858 c-19 -26 -21 -82 -5 -127 19 -55 73 -68 115 -26 23 23
25 30 18 83 -8 71 -25 92 -75 92 -28 0 -42 -6 -53 -22z m91 -28 c16 -32 17
-92 1 -108 -18 -18 -56 -14 -68 7 -17 33 -13 109 8 120 25 15 45 9 59 -19z"/>
<path d="M15360 5859 c0 -9 -9 -19 -20 -22 -10 -3 -22 -17 -26 -33 -6 -23 -2
-32 23 -53 17 -14 33 -38 37 -53 7 -31 -7 -38 -23 -10 -8 14 -12 15 -23 4 -11
-11 -9 -17 12 -33 14 -10 29 -22 34 -27 5 -4 22 4 38 18 39 34 38 75 -2 98
-23 13 -30 24 -30 47 0 22 3 26 12 17 7 -7 18 -12 25 -12 11 0 11 5 3 20 -6
11 -17 20 -25 20 -8 0 -19 8 -24 18 -9 15 -10 15 -11 1z m10 -70 c0 -20 -15
-26 -25 -9 -9 15 3 43 15 35 5 -3 10 -15 10 -26z m40 -88 c0 -11 -4 -23 -10
-26 -6 -4 -10 5 -10 19 0 14 5 26 10 26 6 0 10 -9 10 -19z"/>
<path d="M15589 5851 c-21 -17 -24 -27 -22 -76 3 -77 22 -105 73 -105 31 0 43
5 56 25 24 36 14 133 -17 158 -28 22 -61 22 -90 -2z m81 -30 c5 -11 10 -40 10
-66 0 -39 -4 -47 -25 -57 -21 -9 -29 -9 -41 4 -21 21 -30 103 -14 123 18 21
57 19 70 -4z"/>
<path d="M15456 5835 c-3 -10 1 -15 14 -15 16 0 20 -11 26 -80 5 -59 10 -80
21 -80 12 0 13 13 8 73 -9 109 -12 117 -39 117 -13 0 -26 -7 -30 -15z"/>
<path d="M16029 5839 c-38 -14 -55 -59 -37 -96 37 -78 155 -33 134 51 -5 20
-53 59 -68 55 -2 0 -15 -5 -29 -10z m63 -45 c15 -33 1 -58 -35 -62 -34 -4 -55
34 -38 67 17 30 58 28 73 -5z"/>
<path d="M10123 5748 c4 -46 7 -151 7 -233 0 -127 3 -154 17 -172 14 -17 21
-19 40 -10 28 12 99 -8 108 -31 5 -13 8 -12 24 2 16 15 22 15 40 4 12 -7 21
-16 21 -20 0 -5 16 -8 35 -8 19 0 35 4 35 9 0 5 38 8 85 6 70 -2 87 1 95 14 5
9 10 11 10 5 0 -6 -7 -17 -16 -24 -44 -37 -40 -61 23 -126 21 -22 46 -49 55
-59 31 -36 102 -97 138 -119 19 -12 36 -28 37 -36 8 -66 16 -90 27 -90 20 0
25 31 16 110 -6 55 -13 76 -32 95 -30 30 -55 119 -64 229 -5 62 -4 77 6 71 7
-4 15 -2 19 4 4 7 13 -14 20 -46 13 -55 14 -56 27 -32 13 24 13 24 14 -11 0
-20 7 -46 16 -58 8 -12 13 -22 10 -22 -3 0 1 -8 9 -17 94 -110 99 -119 65
-108 -18 6 -20 3 -15 -22 15 -70 53 -149 93 -194 43 -48 67 -60 74 -38 3 9 10
9 26 0 30 -16 42 -6 42 35 0 28 -5 36 -27 45 -14 5 -32 8 -39 5 -8 -3 -11 0
-8 8 3 8 0 34 -7 57 -7 24 -14 51 -14 59 -1 8 -7 14 -14 12 -7 -1 -10 2 -7 7
3 5 -12 28 -35 52 -22 24 -54 73 -71 109 -17 36 -35 67 -40 68 -4 2 -8 9 -8
16 0 18 -33 46 -55 46 -15 0 -17 6 -12 37 4 21 15 44 24 51 49 34 53 42 53 91
0 26 3 68 6 93 5 34 3 46 -8 51 -23 8 -86 -16 -97 -38 -28 -61 -50 -113 -55
-137 -4 -17 -13 -28 -24 -29 -9 0 -26 -2 -38 -3 -20 -2 -20 -1 7 52 16 30 29
61 29 71 1 30 35 60 90 78 66 21 79 48 28 56 -18 3 -55 11 -83 17 -27 7 -59
11 -70 9 -44 -6 -114 -2 -179 11 -55 10 -77 20 -108 48 -34 31 -42 34 -63 24
-44 -20 -127 -23 -203 -7 -40 8 -76 15 -79 15 -3 0 -3 -37 0 -82z m718 -281
c-16 -16 -26 0 -10 19 9 11 15 12 17 4 2 -6 -1 -17 -7 -23z m38 6 c0 -5 -4
-17 -9 -28 -8 -18 -9 -17 -9 8 -1 15 4 27 9 27 6 0 10 -3 9 -7z m-159 -240 c0
-19 -13 -9 -16 12 -1 8 2 13 7 9 5 -3 9 -12 9 -21z"/>
<path d="M16800 5804 c0 -3 5 -14 11 -25 11 -22 31 -17 23 6 -5 13 -34 30 -34
19z"/>
<path d="M14578 5773 c-31 -5 -32 -10 -21 -125 l6 -68 58 0 c46 0 59 3 59 15
0 11 -12 15 -45 15 -41 0 -45 2 -45 24 0 19 7 26 30 31 43 9 39 32 -5 27 -33
-4 -35 -3 -35 27 0 30 1 31 46 31 32 0 44 4 42 13 -5 13 -45 17 -90 10z"/>
<path d="M14870 5760 c0 -11 -4 -20 -10 -20 -5 0 -10 -7 -10 -15 0 -8 7 -15
15 -15 11 0 15 -11 15 -40 0 -31 5 -43 25 -56 13 -8 29 -13 35 -9 16 10 12 22
-9 28 -27 7 -35 78 -9 85 24 6 23 22 -2 22 -13 0 -20 7 -20 20 0 11 -7 20 -15
20 -8 0 -15 -9 -15 -20z"/>
<path d="M15122 5762 c-29 -4 -55 -54 -46 -87 9 -36 47 -59 81 -50 16 5 37 7
47 6 17 -3 18 2 12 45 -3 26 -6 57 -6 70 0 15 -6 24 -15 24 -8 0 -15 -5 -15
-10 0 -7 -7 -7 -17 -2 -10 4 -28 6 -41 4z m60 -48 c15 -33 1 -58 -35 -62 -34
-4 -55 34 -38 67 17 30 58 28 73 -5z"/>
<path d="M15030 5750 c-8 -5 -23 -7 -32 -4 -16 5 -18 -2 -18 -43 0 -26 3 -58
6 -70 11 -40 24 -25 24 26 0 39 4 53 21 65 24 16 23 41 -1 26z"/>
<path d="M14810 5733 c-8 -4 -22 -16 -32 -27 l-18 -21 -18 24 c-11 14 -24 21
-31 17 -8 -5 -4 -17 14 -38 l25 -30 -20 -28 c-24 -33 -25 -40 -6 -40 7 0 20
10 29 23 14 21 15 21 34 5 11 -10 28 -18 38 -18 16 0 14 5 -11 31 l-29 30 23
40 c12 21 21 39 20 38 -2 0 -10 -3 -18 -6z"/>
<path d="M16995 5659 c-11 -17 1 -21 15 -4 8 9 8 15 2 15 -6 0 -14 -5 -17 -11z"/>
<path d="M11280 5597 c-25 -6 -80 -61 -80 -81 0 -18 65 -30 163 -31 l108 0 -6
30 c-9 44 -67 89 -115 90 -22 0 -53 -3 -70 -8z m60 -37 c0 -5 -5 -10 -11 -10
-5 0 -7 5 -4 10 3 6 8 10 11 10 2 0 4 -4 4 -10z"/>
<path d="M11715 5562 c-3 -3 -5 -19 -5 -35 0 -29 42 -82 54 -69 9 8 7 85 -2
98 -7 11 -38 15 -47 6z"/>
<path d="M16501 5496 c-9 -11 -2 -15 30 -19 47 -6 62 -22 48 -49 -9 -16 -5
-18 41 -18 27 0 50 5 50 10 0 6 -11 10 -24 10 -13 0 -37 13 -52 28 -40 39 -79
55 -93 38z"/>
<path d="M16709 5419 c-9 -5 -9 -9 -2 -9 6 0 18 -3 27 -6 9 -3 16 -2 16 4 0
15 -25 21 -41 11z"/>
<path d="M15665 5399 c-110 -10 -409 -37 -664 -59 -496 -44 -515 -44 -601 0
-48 25 -61 20 -119 -46 -60 -69 -83 -140 -79 -244 2 -70 8 -95 32 -142 53
-105 151 -173 273 -189 97 -12 1783 -11 1861 2 124 19 214 86 269 197 24 50
28 68 28 147 0 76 -5 99 -27 148 -36 76 -112 149 -185 178 -55 22 -72 24 -323
25 -194 2 -318 -3 -465 -17z m95 -225 c0 -19 -28 -30 -42 -16 -8 8 -8 15 1 26
14 17 41 10 41 -10z m-720 -93 l0 -109 -56 2 c-66 2 -94 26 -94 81 0 48 52 85
91 65 17 -10 19 -7 19 30 0 33 3 40 20 40 19 0 20 -7 20 -109z m960 69 c0 -39
1 -39 26 -29 20 7 32 6 50 -6 21 -14 24 -23 24 -81 0 -57 -2 -65 -17 -62 -14
2 -19 15 -21 61 -3 48 -6 57 -22 57 -25 0 -30 -10 -37 -70 -4 -33 -11 -50 -19
-50 -11 0 -14 24 -14 110 0 91 3 110 15 110 11 0 15 -11 15 -40z m-1292 13
c-2 -13 -15 -19 -46 -21 -34 -3 -42 -7 -42 -23 0 -15 7 -19 35 -19 28 0 35 -4
35 -20 0 -16 -7 -20 -35 -20 -31 0 -35 -3 -35 -25 0 -23 4 -25 46 -25 38 0 45
-3 42 -17 -3 -15 -16 -19 -66 -21 l-62 -3 0 106 0 105 66 0 c57 0 65 -2 62
-17z m1582 -40 c0 -66 -13 -98 -30 -73 -5 8 -10 41 -10 73 0 50 2 57 20 57 18
0 20 -7 20 -57z m-970 17 c0 -13 7 -20 20 -20 11 0 20 -7 20 -15 0 -8 -9 -15
-20 -15 -17 0 -20 -7 -20 -40 0 -34 3 -40 21 -40 14 0 19 -5 17 -17 -3 -13
-12 -17 -33 -16 -36 3 -45 17 -45 71 0 31 -4 42 -15 42 -8 0 -15 7 -15 15 0 8
7 15 15 15 8 0 15 9 15 20 0 13 7 20 20 20 13 0 20 -7 20 -20z m862 1 c-1 -7
7 -15 18 -18 24 -6 27 -30 4 -35 -25 -5 -28 -69 -4 -75 25 -7 34 -32 14 -40
-8 -3 -26 -1 -40 5 -21 10 -24 18 -24 62 0 38 -4 50 -15 50 -8 0 -15 7 -15 15
0 8 7 15 15 15 9 0 15 9 15 21 0 14 5 19 18 17 9 -2 16 -10 14 -17z m-1341
-30 c20 -16 23 -28 24 -77 0 -48 -3 -59 -17 -62 -15 -3 -18 4 -18 41 0 58 -8
77 -30 77 -22 0 -30 -19 -30 -76 0 -37 -3 -44 -20 -44 -18 0 -20 7 -20 74 l0
75 33 4 c17 2 37 5 43 5 7 1 22 -6 35 -17z m314 6 c24 -18 11 -39 -21 -31 -35
9 -29 -8 9 -26 38 -18 46 -44 21 -71 -27 -30 -94 -18 -94 17 0 12 8 13 35 8
44 -8 45 6 2 26 -44 21 -50 64 -10 78 37 14 37 14 58 -1z m348 -19 c26 -31 22
-82 -9 -107 -15 -12 -38 -21 -51 -21 -33 0 -73 42 -73 78 0 71 87 105 133 50z
m155 16 c19 -13 22 -24 22 -80 0 -57 -2 -65 -17 -62 -14 3 -17 11 -15 40 4 44
-13 80 -36 76 -13 -2 -18 -17 -22 -58 -4 -42 -9 -56 -22 -58 -16 -3 -18 6 -18
72 l0 75 33 4 c17 2 37 5 42 5 6 1 21 -5 33 -14z m243 6 l29 0 0 -84 c0 -79
-2 -86 -26 -105 -30 -24 -52 -26 -89 -9 -37 17 -25 33 26 33 31 0 44 4 47 16
2 12 -5 14 -32 11 -59 -7 -95 53 -65 109 12 23 47 40 67 33 8 -2 27 -4 43 -4z
m-151 -75 c0 -60 -3 -75 -15 -75 -12 0 -15 15 -15 75 0 60 3 75 15 75 12 0 15
-15 15 -75z m544 -32 c4 -9 0 -23 -8 -31 -12 -13 -18 -13 -30 -2 -28 22 -17
47 20 49 7 1 15 -7 18 -16z"/>
<path d="M14942 5081 c-8 -5 -12 -21 -10 -37 3 -25 7 -29 33 -29 26 0 30 4 33
29 3 27 -10 46 -33 46 -5 0 -16 -4 -23 -9z"/>
<path d="M15414 5076 c-12 -32 0 -61 29 -64 21 -3 29 2 36 20 5 13 5 30 -1 41
-11 21 -56 23 -64 3z"/>
<path d="M15833 5083 c-16 -6 -17 -45 -1 -61 32 -32 80 8 58 48 -10 19 -31 24
-57 13z"/>
<path d="M13257 5374 c-6 -10 9 -42 16 -34 3 3 1 14 -3 24 -3 11 -9 15 -13 10z"/>
<path d="M16846 5338 c16 -18 38 -50 47 -72 10 -21 19 -37 21 -35 2 2 6 23 10
47 6 39 5 42 -17 42 -13 0 -34 11 -47 25 -13 14 -28 25 -34 25 -5 0 4 -15 20
-32z"/>
<path d="M11605 5299 c-4 -6 -5 -13 -2 -16 7 -7 27 6 27 18 0 12 -17 12 -25
-2z"/>
<path d="M11317 5253 c-12 -11 -8 -40 7 -52 12 -10 17 -8 25 7 8 15 6 23 -8
36 -10 9 -21 13 -24 9z"/>
<path d="M13316 5105 c-3 -8 -1 -15 3 -15 5 0 11 7 15 15 3 8 1 15 -3 15 -5 0
-11 -7 -15 -15z"/>
<path d="M16876 5099 c-4 -14 -6 -48 -4 -75 3 -43 4 -46 15 -29 7 14 9 39 4
75 -6 46 -9 51 -15 29z"/>
<path d="M13355 5089 c-4 -6 -5 -12 -2 -15 2 -3 7 2 10 11 7 17 1 20 -8 4z"/>
<path d="M16942 5064 c1 -9 9 -19 16 -22 9 -3 13 2 10 14 -1 9 -9 19 -16 22
-9 3 -13 -2 -10 -14z"/>
<path d="M11186 4761 c-3 -5 1 -11 9 -15 8 -3 15 -1 15 4 0 13 -18 22 -24 11z"/>
<path d="M16930 4655 c7 -8 9 -26 5 -44 -5 -24 -2 -32 15 -41 27 -15 38 -5 22
20 -7 11 -12 28 -12 38 0 19 -18 42 -33 42 -5 0 -4 -7 3 -15z"/>
<path d="M11486 4522 c-3 -20 -6 -56 -6 -79 0 -24 -4 -43 -9 -43 -5 0 -16 -18
-25 -41 -13 -33 -14 -48 -5 -81 9 -35 13 -39 24 -27 21 22 48 100 48 139 -1
145 -14 210 -27 132z"/>
<path d="M13060 4519 c0 -5 5 -7 10 -4 6 3 10 8 10 11 0 2 -4 4 -10 4 -5 0
-10 -5 -10 -11z"/>
<path d="M13091 4483 c-1 -12 4 -25 9 -28 12 -7 12 2 0 30 -8 19 -9 19 -9 -2z"/>
<path d="M12950 4486 c0 -2 8 -10 17 -17 9 -8 14 -9 10 -2 -4 6 -1 14 5 16 7
3 3 6 -9 6 -13 1 -23 -1 -23 -3z"/>
<path d="M12836 4424 l-38 -26 34 -20 c18 -11 44 -30 58 -42 19 -16 18 -14 -4
11 -16 18 -38 35 -48 39 -23 7 -23 24 0 24 26 0 59 -26 93 -73 16 -22 29 -35
29 -28 0 7 -24 37 -54 67 -30 30 -48 54 -40 54 24 0 65 -32 95 -74 16 -21 29
-36 29 -32 0 16 -42 66 -79 95 l-38 30 -37 -25z"/>
<path d="M12960 4447 c0 -2 15 -16 33 -33 l32 -29 -29 33 c-28 30 -36 37 -36
29z"/>
<path d="M13030 4446 c0 -2 8 -10 18 -17 15 -13 16 -12 3 4 -13 16 -21 21 -21
13z"/>
<path d="M14490 4430 c0 -5 5 -10 10 -10 6 0 10 5 10 10 0 6 -4 10 -10 10 -5
0 -10 -4 -10 -10z"/>
<path d="M13142 4380 c0 -19 2 -27 5 -17 2 9 2 25 0 35 -3 9 -5 1 -5 -18z"/>
<path d="M12790 4366 c0 -3 18 -17 39 -32 34 -22 43 -37 71 -113 44 -124 97
-171 191 -171 28 0 39 -4 39 -15 0 -11 -12 -15 -50 -15 -107 0 -164 52 -206
186 -22 72 -32 89 -58 105 -45 28 -57 23 -14 -6 29 -20 40 -37 58 -92 49 -151
92 -193 207 -203 66 -5 73 -4 73 13 0 29 -33 152 -38 139 -14 -43 -98 20 -122
93 -7 20 -14 34 -17 31 -3 -2 6 -29 20 -60 26 -56 52 -80 100 -91 28 -8 38
-35 12 -35 -59 0 -123 60 -150 140 -9 28 -19 49 -21 47 -8 -8 36 -114 58 -142
24 -31 74 -55 113 -55 16 0 25 -6 25 -15 0 -23 -58 -19 -110 8 -50 25 -68 52
-104 151 -14 38 -32 76 -40 85 -17 18 -76 55 -76 47z"/>
<path d="M13011 4340 c14 -31 19 -36 19 -24 0 6 -7 19 -16 30 -14 18 -14 18
-3 -6z"/>
<path d="M13040 4345 c0 -5 5 -17 10 -25 5 -8 10 -10 10 -5 0 6 -5 17 -10 25
-5 8 -10 11 -10 5z"/>
<path d="M13172 4315 c0 -16 2 -22 5 -12 2 9 2 23 0 30 -3 6 -5 -1 -5 -18z"/>
<path d="M15277 4318 c-8 -27 4 -41 29 -36 28 5 26 52 -2 56 -15 2 -23 -4 -27
-20z"/>
<path d="M12750 4292 c0 -4 12 -12 28 -18 22 -9 30 -22 45 -75 24 -87 40 -120
78 -163 46 -53 77 -66 158 -66 46 0 71 -4 74 -12 3 -8 6 -6 6 5 1 15 -9 17
-71 17 -126 0 -189 59 -232 217 -17 63 -24 73 -53 87 -18 9 -33 12 -33 8z"/>
<path d="M13040 4278 c0 -4 5 -18 11 -32 14 -29 39 -42 39 -20 0 8 -4 13 -10
9 -5 -3 -16 7 -24 22 -8 15 -15 25 -16 21z"/>
<path d="M13156 4264 c-4 -9 -4 -19 -1 -22 2 -3 7 3 11 12 4 9 4 19 1 22 -2 3
-7 -3 -11 -12z"/>
<path d="M12740 4251 c0 -5 9 -11 20 -14 11 -3 20 -9 18 -14 -3 -14 43 -155
60 -182 53 -87 108 -115 220 -112 66 1 82 -1 82 -13 0 -8 -8 -17 -17 -19 -17
-4 -17 -5 0 -6 9 0 17 -8 17 -16 0 -10 -11 -15 -37 -16 -34 -2 -35 -2 -8 -6
17 -2 37 -7 45 -10 8 -3 22 -7 31 -8 9 -1 29 -10 45 -21 40 -28 91 -47 103
-40 6 4 20 21 32 39 l22 32 -36 -34 -36 -34 -65 37 c-46 26 -63 41 -60 51 8
19 6 20 61 -15 26 -16 52 -30 59 -30 14 0 74 69 74 84 0 5 -14 -10 -30 -32
-17 -23 -36 -42 -43 -42 -6 0 -34 14 -61 31 -34 21 -45 34 -38 41 8 8 24 3 56
-16 l45 -26 24 32 c40 54 42 66 5 24 l-34 -39 -42 23 c-23 13 -42 27 -42 31 0
16 22 20 37 7 13 -9 12 -6 -2 14 l-20 26 -35 -66 -35 -67 -3 47 -3 46 -99 4
c-81 2 -104 7 -127 24 -52 39 -89 98 -113 185 -21 75 -40 108 -62 109 -5 0 -8
-4 -8 -9z"/>
<path d="M13010 4253 c0 -23 52 -73 73 -72 21 2 21 2 -1 6 -12 2 -33 21 -47
41 -14 20 -25 31 -25 25z"/>
<path d="M12008 4243 c7 -3 16 -2 19 1 4 3 -2 6 -13 5 -11 0 -14 -3 -6 -6z"/>
<path d="M12400 4236 c0 -9 7 -16 15 -16 8 0 15 -4 15 -10 0 -5 -7 -10 -15
-10 -8 0 -12 -6 -9 -13 3 -8 -11 -37 -31 -66 -19 -29 -35 -57 -35 -62 0 -5 -5
-9 -12 -9 -6 0 -8 -3 -5 -6 3 -4 -3 -18 -13 -32 -26 -32 -25 -52 0 -52 16 0
20 6 18 28 -2 26 19 67 54 106 10 11 18 23 18 28 0 4 7 8 15 8 8 0 15 9 15 19
0 11 5 23 10 26 6 3 10 -5 10 -18 0 -14 -7 -27 -15 -31 -8 -3 -15 -15 -15 -26
0 -22 16 -27 23 -7 2 6 8 9 12 5 4 -4 0 -28 -9 -54 -9 -26 -16 -55 -16 -65 0
-10 -6 -20 -12 -22 -7 -3 -1 -6 14 -6 14 -1 55 -10 90 -21 71 -22 98 -25 98
-9 0 5 -4 8 -8 5 -5 -3 -46 7 -93 22 -46 15 -75 28 -64 30 11 1 47 -6 79 -18
33 -11 69 -20 80 -20 16 0 27 -14 44 -53 12 -28 22 -62 22 -74 0 -21 53 -83
71 -83 5 0 -6 16 -26 35 -23 24 -35 45 -35 63 0 15 -9 44 -20 65 -11 20 -20
49 -20 64 -1 26 -2 27 -15 9 -13 -18 -16 -17 -90 7 -42 14 -82 24 -90 21 -9
-4 -6 10 11 44 31 62 44 106 35 119 -3 5 -27 28 -53 52 -33 30 -48 39 -48 27z
m-83 -258 c-3 -8 -6 -5 -6 6 -1 11 2 17 5 13 3 -3 4 -12 1 -19z"/>
<path d="M11200 4225 c-13 -15 -5 -70 11 -80 5 -3 18 2 29 13 17 16 19 23 9
50 -12 34 -29 41 -49 17z"/>
<path d="M11463 4225 c-9 -25 4 -29 17 -6 7 15 7 21 0 21 -6 0 -13 -7 -17 -15z"/>
<path d="M13212 4220 c0 -14 2 -19 5 -12 2 6 2 18 0 25 -3 6 -5 1 -5 -13z"/>
<path d="M12720 4221 c0 -9 30 -24 36 -18 2 1 -6 8 -16 15 -11 7 -20 8 -20 3z"/>
<path d="M13181 4214 c0 -11 3 -14 6 -6 3 7 2 16 -1 19 -3 4 -6 -2 -5 -13z"/>
<path d="M12710 4181 c0 -5 7 -11 15 -15 8 -3 15 -1 15 3 0 5 -7 11 -15 15 -8
3 -15 1 -15 -3z"/>
<path d="M12751 4188 c-2 -17 33 -137 50 -170 46 -89 139 -142 241 -136 l53 3
-73 9 c-40 5 -92 18 -115 30 -51 26 -100 95 -122 174 -16 57 -33 103 -34 90z"/>
<path d="M13171 4177 c-1 -10 -5 -16 -10 -13 -5 4 -7 -4 -3 -16 l5 -22 9 24
c5 13 7 28 4 34 -2 6 -5 3 -5 -7z"/>
<path d="M11420 4170 c0 -7 -6 -10 -14 -7 -20 8 -36 -13 -36 -45 0 -21 5 -28
20 -28 11 0 20 5 20 10 0 6 7 10 15 10 17 0 21 55 5 65 -5 3 -10 1 -10 -5z"/>
<path d="M11706 4159 c-39 -31 -30 -79 16 -79 9 0 34 -18 54 -40 21 -22 43
-40 50 -40 40 0 8 112 -43 147 -47 33 -50 33 -77 12z"/>
<path d="M12696 4139 c3 -5 11 -9 19 -9 8 0 18 -20 24 -50 15 -72 34 -111 72
-155 47 -53 119 -85 189 -84 l55 2 -70 11 c-38 7 -84 20 -101 29 -68 35 -121
122 -139 227 -5 28 -11 35 -31 36 -13 1 -21 -2 -18 -7z"/>
<path d="M13191 4114 c0 -11 3 -14 6 -6 3 7 2 16 -1 19 -3 4 -6 -2 -5 -13z"/>
<path d="M13222 4110 c0 -14 2 -19 5 -12 2 6 2 18 0 25 -3 6 -5 1 -5 -13z"/>
<path d="M12536 4108 c4 -11 0 -20 -10 -24 -25 -9 -19 -19 12 -19 15 -1 38 -4
52 -9 l25 -8 -25 25 c-14 13 -27 23 -29 21 -2 -2 -10 4 -18 14 -12 16 -13 16
-7 0z"/>
<path d="M13290 4100 c-6 -11 -8 -20 -6 -20 3 0 10 9 16 20 6 11 8 20 6 20 -3
0 -10 -9 -16 -20z"/>
<path d="M12688 4102 c7 -5 16 -26 19 -48 23 -144 120 -240 252 -250 l56 -4
-63 15 c-35 8 -79 22 -98 31 -64 30 -119 119 -133 213 -5 35 -11 46 -26 49
-14 2 -16 0 -7 -6z"/>
<path d="M11261 4086 c-15 -18 -9 -42 24 -81 l24 -30 0 35 c-2 73 -23 106 -48
76z"/>
<path d="M13176 4064 c-4 -14 -5 -28 -3 -31 3 -2 8 8 11 23 4 14 5 28 3 31 -3
2 -8 -8 -11 -23z"/>
<path d="M12677 4060 c3 -13 0 -20 -8 -20 -10 0 -10 -3 -3 -8 6 -4 22 -38 35
-77 14 -43 37 -85 59 -109 38 -42 105 -76 148 -75 18 0 6 7 -35 20 -42 13 -74
31 -98 56 -38 39 -74 123 -82 191 -3 23 -9 42 -13 42 -5 0 -6 -9 -3 -20z"/>
<path d="M13306 4063 c-6 -14 -5 -15 5 -6 7 7 10 15 7 18 -3 3 -9 -2 -12 -12z"/>
<path d="M13211 4054 c0 -11 3 -14 6 -6 3 7 2 16 -1 19 -3 4 -6 -2 -5 -13z"/>
<path d="M15681 4044 c0 -11 3 -14 6 -6 3 7 2 16 -1 19 -3 4 -6 -2 -5 -13z"/>
<path d="M13230 4031 c0 -5 7 -12 16 -15 14 -5 15 -4 4 9 -14 17 -20 19 -20 6z"/>
<path d="M11719 4004 c-21 -21 -13 -59 17 -74 30 -17 54 1 54 39 0 47 -40 67
-71 35z"/>
<path d="M12657 4013 c-4 -6 0 -31 9 -55 8 -24 19 -58 24 -76 15 -61 88 -133
132 -132 7 1 -4 10 -25 21 -41 22 -97 91 -97 121 0 11 -5 29 -12 41 -6 12 -14
38 -18 57 -3 21 -9 30 -13 23z"/>
<path d="M13162 3995 c0 -16 2 -22 5 -12 2 9 2 23 0 30 -3 6 -5 -1 -5 -18z"/>
<path d="M13294 3985 l-17 -26 -26 23 -26 23 24 -27 c14 -16 26 -28 27 -28 1
0 12 14 24 30 12 17 19 30 16 30 -3 0 -13 -11 -22 -25z"/>
<path d="M13177 3965 c-24 -50 -20 -58 4 -12 11 22 19 41 17 43 -3 2 -12 -12
-21 -31z"/>
<path d="M11570 3972 c0 -12 22 -37 50 -56 25 -17 52 -22 48 -8 -1 4 3 17 10
29 11 19 9 24 -7 33 -23 12 -101 14 -101 2z"/>
<path d="M13294 3928 l-19 -23 23 19 c21 18 27 26 19 26 -2 0 -12 -10 -23 -22z"/>
<path d="M11414 3865 c-12 -8 -24 -11 -28 -7 -10 9 0 -15 29 -72 14 -27 25
-44 25 -38 0 6 12 9 28 8 15 -2 33 1 40 6 19 16 14 62 -9 92 -23 29 -54 33
-85 11z"/>
<path d="M12550 3793 c-46 -100 -45 -96 -22 -82 12 7 28 29 36 49 l16 35 -6
-35 c-14 -100 -14 -98 -5 -62 12 48 21 51 16 6 -4 -30 -1 -26 11 19 16 55 13
147 -4 147 -4 -1 -23 -35 -42 -77z m47 -30 c-3 -10 -5 -2 -5 17 0 19 2 27 5
18 2 -10 2 -26 0 -35z"/>
<path d="M13030 3817 c3 -3 33 -7 68 -10 35 -2 70 -11 80 -19 9 -9 43 -28 76
-43 l58 -27 32 33 31 34 -32 -29 -32 -29 -83 45 c-66 35 -95 44 -143 47 -33 2
-58 1 -55 -2z"/>
<path d="M12127 3792 c-18 -20 -23 -52 -8 -52 9 0 34 60 28 67 -2 2 -11 -5
-20 -15z"/>
<path d="M13350 3715 c-27 -27 -37 -32 -52 -24 -10 5 -18 7 -18 5 0 -3 9 -10
21 -17 17 -9 25 -7 46 13 23 21 48 58 40 58 -2 0 -18 -16 -37 -35z"/>
<path d="M12752 3607 c-58 -120 -68 -147 -52 -147 6 0 -9 -24 -33 -54 -43 -53
-128 -206 -142 -256 -3 -14 17 20 45 75 47 92 132 217 164 244 7 6 30 52 51
101 32 76 41 89 57 85 10 -4 69 -1 131 5 l112 12 105 -38 c58 -20 112 -41 120
-47 12 -9 12 -8 -1 6 -8 10 -59 33 -112 52 -104 37 -202 46 -264 25 -20 -7
-44 -8 -72 -1 l-43 9 -53 -111 c-66 -137 -72 -126 -9 17 l45 104 77 0 c42 0
109 3 148 7 66 7 77 5 185 -33 63 -23 106 -35 96 -27 -10 7 -59 27 -109 45
-82 28 -99 31 -167 26 -42 -4 -92 -7 -111 -8 -19 -2 -54 0 -77 5 l-41 7 -50
-103z"/>
<path d="M12233 3684 c3 -3 39 -15 79 -26 40 -11 93 -26 118 -34 41 -12 42
-13 10 -10 -19 2 -48 8 -65 14 -16 6 -58 17 -92 25 -50 11 -63 11 -67 1 -3 -7
3 -13 12 -12 47 0 132 -16 168 -33 22 -10 46 -19 52 -19 15 0 15 0 1 -39 -11
-30 -15 -32 -45 -29 -32 4 -47 -6 -22 -14 9 -3 6 -28 -12 -91 -12 -48 -20 -90
-17 -93 8 -8 27 31 29 60 2 18 8 26 20 26 11 0 23 12 29 28 6 15 19 46 30 69
10 24 16 49 13 58 -3 8 3 31 15 51 24 41 18 65 -8 33 l-17 -22 -65 21 c-100
32 -179 49 -166 36z m197 -184 c0 -5 -8 -10 -17 -10 -15 0 -16 2 -3 10 19 12
20 12 20 0z"/>
<path d="M12110 3673 c0 -5 -7 -82 -15 -173 -8 -91 -15 -186 -15 -211 0 -43 2
-48 33 -60 17 -8 35 -13 40 -11 4 1 7 -2 7 -8 0 -5 7 -10 16 -10 9 0 33 -13
54 -30 43 -34 65 -38 79 -12 9 16 10 29 10 109 0 18 7 62 16 98 9 40 11 73 6
87 -16 43 -22 98 -12 98 6 0 14 -19 17 -41 5 -30 9 -37 16 -26 4 9 4 27 -2 42
-9 23 -8 26 5 21 10 -4 14 -2 9 5 -6 11 -129 8 -140 -3 -2 -3 3 -50 13 -106
15 -97 15 -103 -3 -157 -10 -31 -23 -57 -29 -56 -24 0 -50 251 -31 306 5 14 3
12 -7 -4 -9 -15 -13 -40 -10 -65 4 -32 2 -38 -7 -26 -9 11 -10 -12 -7 -99 4
-94 3 -111 -7 -92 -7 12 -13 55 -14 94 -1 40 -7 97 -13 127 -7 32 -9 87 -5
133 4 42 4 77 1 77 -3 0 -5 -3 -5 -7z m169 -196 c13 -76 14 -87 3 -87 -4 0
-15 34 -24 75 -12 59 -12 75 -3 75 8 0 17 -25 24 -63z m41 -18 c6 -45 9 -84 6
-87 -3 -3 -7 2 -7 11 -2 19 -3 26 -12 47 -3 8 -10 36 -15 63 -7 36 -7 47 3 47
8 0 17 -29 25 -81z m-153 -136 c-2 -16 -4 -5 -4 22 0 28 2 40 4 28 2 -13 2
-35 0 -50z m10 -75 c-3 -7 -5 -2 -5 12 0 14 2 19 5 13 2 -7 2 -19 0 -25z"/>
<path d="M12001 3593 c0 -12 -4 -30 -7 -40 -5 -17 -5 -17 6 0 6 10 9 28 7 40
-4 22 -4 22 -6 0z"/>
<path d="M13368 3513 c-62 -88 -71 -103 -64 -103 5 0 73 93 109 151 37 57 9
28 -45 -48z"/>
<path d="M12867 3558 c-4 -12 -4 -24 -1 -27 3 -3 7 5 11 17 5 22 27 30 37 13
3 -4 -35 -61 -85 -126 -97 -128 -167 -248 -199 -341 l-21 -59 21 -55 c11 -30
28 -96 39 -147 41 -190 123 -285 274 -316 37 -8 65 -11 62 -7 -3 4 -26 11 -52
15 -146 21 -236 130 -278 332 -9 40 -24 97 -35 126 -20 53 -20 54 -1 110 27
77 111 217 214 357 47 63 83 118 81 122 -3 4 -18 8 -33 8 -21 0 -30 -6 -34
-22z"/>
<path d="M12884 3388 c-122 -181 -192 -316 -199 -383 l-4 -50 13 53 c25 97 59
160 219 405 42 64 75 117 72 117 -2 0 -48 -64 -101 -142z"/>
<path d="M12781 3431 c-96 -120 -216 -340 -196 -359 2 -3 7 4 10 14 24 81 144
277 258 422 5 6 7 12 4 12 -3 0 -37 -40 -76 -89z"/>
<path d="M12974 3463 c-15 -27 -34 -59 -42 -73 l-14 -25 18 22 c22 27 77 123
71 123 -3 0 -18 -21 -33 -47z"/>
<path d="M13501 3484 c0 -11 3 -14 6 -6 3 7 2 16 -1 19 -3 4 -6 -2 -5 -13z"/>
<path d="M12718 3411 c-59 -74 -149 -234 -164 -291 -3 -14 19 24 50 84 30 59
74 134 97 165 24 31 54 71 67 89 13 17 22 32 18 32 -3 0 -34 -36 -68 -79z"/>
<path d="M13175 3445 c50 -19 92 -35 95 -34 12 0 -57 33 -108 50 -92 32 -83
21 13 -16z"/>
<path d="M12497 3398 c-31 -43 -69 -142 -73 -187 -2 -20 -1 -30 2 -23 7 14 24
16 24 2 0 -5 -13 -16 -30 -22 l-29 -13 20 -25 c11 -14 18 -19 14 -12 -4 7 1
12 14 12 20 0 20 2 21 68 0 26 61 161 92 204 11 16 15 28 9 28 -15 0 -44 -46
-82 -129 -18 -40 -35 -69 -37 -62 -2 6 16 51 41 101 24 49 43 90 41 90 -2 0
-14 -15 -27 -32z m-62 -248 c-3 -5 -10 -10 -16 -10 -5 0 -9 5 -9 10 0 6 7 10
16 10 8 0 12 -4 9 -10z"/>
<path d="M13320 3367 c0 -2 15 -16 33 -33 l32 -29 -29 33 c-28 30 -36 37 -36
29z"/>
<path d="M12852 3268 c-136 -212 -159 -307 -91 -388 l21 -25 -21 36 c-15 26
-21 54 -21 97 0 52 6 72 41 138 22 42 52 95 68 118 41 62 73 116 68 116 -3 0
-32 -42 -65 -92z"/>
<path d="M13347 3289 c28 -30 54 -65 58 -78 4 -12 9 -20 12 -18 10 10 -27 63
-73 107 l-48 45 51 -56z"/>
<path d="M13316 3270 c18 -19 41 -53 52 -75 12 -22 21 -33 22 -24 0 19 -47 86
-81 114 -15 12 -12 7 7 -15z"/>
<path d="M13414 3266 c14 -21 26 -43 26 -49 0 -6 3 -8 6 -5 7 8 -21 61 -42 78
-9 8 -5 -3 10 -24z"/>
<path d="M15880 3260 c-9 -6 -10 -10 -3 -10 6 0 15 5 18 10 8 12 4 12 -15 0z"/>
<path d="M16251 3244 c0 -11 3 -14 6 -6 3 7 2 16 -1 19 -3 4 -6 -2 -5 -13z"/>
<path d="M13587 3223 c-4 -3 -7 -11 -7 -17 0 -6 5 -5 12 2 6 6 9 14 7 17 -3 3
-9 2 -12 -2z"/>
<path d="M13653 3185 c0 -27 2 -38 4 -22 2 15 2 37 0 50 -2 12 -4 0 -4 -28z"/>
<path d="M13490 3210 c0 -5 5 -10 11 -10 5 0 7 5 4 10 -3 6 -8 10 -11 10 -2 0
-4 -4 -4 -10z"/>
<path d="M13618 3171 c-4 -30 -19 -72 -33 -95 l-26 -41 26 30 c28 34 48 93 43
133 -2 17 -6 8 -10 -27z"/>
<path d="M13335 3180 c8 -16 19 -46 24 -67 7 -28 9 -31 10 -13 1 25 -33 110
-44 110 -3 0 1 -13 10 -30z"/>
<path d="M13479 3188 c0 -2 -2 -11 -4 -21 -3 -15 -1 -16 11 -6 7 6 11 15 8 20
-5 9 -13 12 -15 7z"/>
<path d="M13422 3160 c0 -14 2 -19 5 -12 2 6 2 18 0 25 -3 6 -5 1 -5 -13z"/>
<path d="M13496 3123 c-33 -31 -51 -51 -40 -45 18 10 113 102 104 102 -3 -1
-32 -26 -64 -57z"/>
<path d="M13540 3115 c-38 -43 -39 -45 -7 -16 43 41 49 28 10 -21 -23 -27 -23
-30 -4 -13 27 23 54 71 49 88 -2 7 -23 -10 -48 -38z"/>
<path d="M13391 3134 c0 -11 3 -14 6 -6 3 7 2 16 -1 19 -3 4 -6 -2 -5 -13z"/>
<path d="M13321 3114 c0 -11 3 -14 6 -6 3 7 2 16 -1 19 -3 4 -6 -2 -5 -13z"/>
<path d="M13636 3104 c-4 -16 -24 -44 -44 -63 -21 -19 -27 -29 -15 -23 37 20
85 94 70 108 -2 3 -8 -7 -11 -22z"/>
<path d="M12436 3065 c5 -31 4 -35 -14 -35 -12 0 -31 -4 -44 -9 -13 -5 -35
-12 -50 -15 -16 -4 -28 -11 -28 -17 0 -6 7 -6 20 1 11 6 25 8 30 5 5 -3 24 2
41 11 17 8 43 14 56 11 26 -5 40 13 28 34 -6 8 -10 7 -16 -2 -6 -10 -9 -4 -9
19 0 17 -5 32 -10 32 -7 0 -8 -13 -4 -35z"/>
<path d="M13402 3075 c0 -16 2 -22 5 -12 2 9 2 23 0 30 -3 6 -5 -1 -5 -18z"/>
<path d="M13332 3065 c0 -16 2 -22 5 -12 2 9 2 23 0 30 -3 6 -5 -1 -5 -18z"/>
<path d="M13445 3044 c-22 -13 -35 -24 -30 -24 12 0 75 38 75 45 0 6 2 7 -45
-21z"/>
<path d="M12375 3050 c-3 -5 -15 -10 -25 -10 -10 0 -21 -4 -24 -9 -3 -4 5 -7
18 -6 24 3 66 22 66 30 0 9 -29 5 -35 -5z"/>
<path d="M13372 3040 c0 -14 2 -19 5 -12 2 6 2 18 0 25 -3 6 -5 1 -5 -13z"/>
<path d="M13480 3029 c-22 -18 -22 -19 -3 -10 12 6 25 16 28 21 9 15 3 12 -25
-11z"/>
<path d="M13527 3026 c-16 -13 -16 -14 -1 -20 9 -4 19 -4 22 -1 3 3 0 5 -8 5
-10 0 -10 3 0 15 15 18 11 19 -13 1z"/>
<path d="M13605 3010 c-3 -6 1 -7 9 -4 18 7 21 14 7 14 -6 0 -13 -4 -16 -10z"/>
<path d="M13410 2994 l-25 -15 25 7 c14 3 29 10 35 15 15 14 -7 10 -35 -7z"/>
<path d="M13490 2990 c-8 -5 -10 -10 -5 -10 6 0 17 5 25 10 8 5 11 10 5 10 -5
0 -17 -5 -25 -10z"/>
<path d="M13560 2985 c-14 -8 -20 -14 -14 -15 5 0 19 7 30 15 24 18 16 19 -16
0z"/>
<path d="M13201 2969 c-1 -23 4 -28 35 -34 20 -3 39 -4 42 -1 5 6 -14 10 -30
7 -5 0 -8 7 -9 17 0 10 -3 12 -6 5 -8 -20 -21 -15 -26 10 -4 20 -4 19 -6 -4z"/>
<path d="M12218 2902 c-15 -42 -30 -86 -34 -97 -4 -11 -4 -17 -1 -14 11 9 76
189 68 189 -3 0 -18 -35 -33 -78z"/>
<path d="M13331 2964 c0 -11 3 -14 6 -6 3 7 2 16 -1 19 -3 4 -6 -2 -5 -13z"/>
<path d="M13410 2960 c-25 -10 -38 -19 -30 -19 17 1 101 37 85 38 -5 0 -30 -9
-55 -19z"/>
<path d="M12460 2933 c-25 -8 -61 -18 -80 -23 -35 -8 -35 -8 -5 -9 17 0 59 10
95 24 71 26 63 33 -10 8z"/>
<path d="M12256 2925 c-9 -26 -7 -32 5 -12 6 10 9 21 6 23 -2 3 -7 -2 -11 -11z"/>
<path d="M12692 2910 c0 -14 2 -19 5 -12 2 6 2 18 0 25 -3 6 -5 1 -5 -13z"/>
<path d="M12490 2903 c-25 -8 -67 -20 -95 -28 -38 -10 -43 -14 -22 -14 22 -1
146 34 166 46 16 10 -11 7 -49 -4z"/>
<path d="M12318 2893 c7 -3 16 -2 19 1 4 3 -2 6 -13 5 -11 0 -14 -3 -6 -6z"/>
<path d="M12253 2883 c9 -2 25 -2 35 0 9 3 1 5 -18 5 -19 0 -27 -2 -17 -5z"/>
<path d="M12701 2871 c-2 -27 31 -136 54 -180 33 -65 122 -141 165 -141 8 0
-5 10 -29 22 -50 25 -104 75 -126 117 -8 16 -26 67 -39 113 -14 46 -25 77 -25
69z"/>
<path d="M12230 2848 c0 -4 14 -8 30 -8 17 0 30 2 30 4 0 2 -13 6 -30 8 -16 3
-30 1 -30 -4z"/>
<path d="M12308 2853 c6 -2 18 -2 25 0 6 3 1 5 -13 5 -14 0 -19 -2 -12 -5z"/>
<path d="M12745 2827 c11 -54 47 -138 73 -169 34 -40 100 -88 121 -88 12 1 11
3 -4 11 -91 50 -132 99 -171 208 -13 36 -22 53 -19 38z"/>
<path d="M12231 2809 c16 -6 40 -6 65 0 37 9 36 9 -26 9 -52 0 -60 -1 -39 -9z"/>
<path d="M12800 2764 c0 -5 13 -30 28 -55 41 -64 128 -130 169 -128 11 0 6 5
-12 11 -57 20 -131 87 -167 152 -9 17 -17 26 -18 20z"/>
<path d="M12890 2756 c0 -2 8 -10 18 -17 15 -13 16 -12 3 4 -13 16 -21 21 -21
13z"/>
<path d="M12180 2740 c0 -5 4 -10 9 -10 5 0 18 -3 28 -6 16 -5 16 -4 -1 10
-23 18 -36 20 -36 6z"/>
<path d="M12343 2743 c9 -2 25 -2 35 0 9 3 1 5 -18 5 -19 0 -27 -2 -17 -5z"/>
<path d="M12860 2746 c0 -2 8 -10 18 -17 15 -13 16 -12 3 4 -13 16 -21 21 -21
13z"/>
<path d="M12870 2705 c19 -19 36 -35 39 -35 3 0 -10 16 -29 35 -19 19 -36 35
-39 35 -3 0 10 -16 29 -35z"/>
<path d="M12944 2716 c11 -9 24 -16 30 -16 12 0 7 5 -24 19 -24 11 -24 11 -6
-3z"/>
<path d="M12905 2710 c3 -5 37 -28 75 -50 50 -29 79 -40 107 -39 l38 2 -45 6
c-26 4 -74 25 -113 49 -37 22 -65 37 -62 32z"/>
<path d="M13000 2689 c39 -26 91 -49 112 -48 18 1 16 3 -9 9 -17 4 -48 17 -68
29 -37 21 -63 29 -35 10z"/>
<path d="M12920 2666 c0 -11 83 -66 99 -65 14 0 14 1 1 6 -8 3 -34 19 -57 35
-24 16 -43 27 -43 24z"/>
<path d="M13235 2614 c-44 -31 -115 -73 -158 -95 l-77 -39 -63 16 c-73 19
-115 42 -181 104 -28 26 -43 35 -35 22 34 -56 182 -142 246 -142 7 0 10 -6 7
-15 -9 -22 135 52 251 130 109 73 113 75 99 74 -5 0 -45 -25 -89 -55z"/>
<path d="M13226 2645 c-23 -17 -40 -20 -31 -5 10 16 -5 12 -43 -12 -21 -13
-50 -21 -71 -21 -32 1 -33 1 -11 -7 25 -8 25 -8 -5 -10 -23 -2 -25 -4 -8 -7
12 -2 45 8 73 22 74 37 72 25 -2 -21 -53 -32 -72 -38 -118 -37 -30 0 -42 -2
-25 -4 16 -3 33 -10 36 -15 4 -7 29 2 65 23 91 51 180 109 169 109 -5 -1 -19
-7 -29 -15z"/>
<path d="M13275 2581 c-3 -16 -15 -37 -26 -47 -21 -19 -24 -9 -9 31 7 17 7 24
0 20 -6 -3 -10 -12 -10 -18 0 -7 -6 -24 -14 -38 -11 -22 -11 -26 1 -26 20 0
73 64 73 87 0 29 -7 24 -15 -9z"/>
<path d="M13013 2563 c9 -2 25 -2 35 0 9 3 1 5 -18 5 -19 0 -27 -2 -17 -5z"/>
<path d="M12784 2526 c35 -32 129 -77 159 -75 7 0 -17 11 -51 24 -35 13 -73
32 -85 42 -43 37 -61 45 -23 9z"/>
<path d="M13170 2514 c-21 -49 -26 -71 -9 -41 16 27 40 87 35 87 -3 0 -14 -21
-26 -46z"/>
<path d="M12097 2510 c3 -11 7 -20 9 -20 2 0 4 9 4 20 0 11 -4 20 -9 20 -5 0
-7 -9 -4 -20z"/>
<path d="M12780 2496 c26 -29 109 -76 132 -75 7 0 -9 10 -37 23 -27 13 -66 36
-85 51 l-35 29 25 -28z"/>
<path d="M13101 2434 c-18 -48 -30 -88 -28 -91 2 -2 17 32 32 74 15 43 32 84
38 91 6 8 6 12 -1 12 -5 0 -24 -39 -41 -86z"/>
<path d="M12111 2464 c0 -11 3 -14 6 -6 3 7 2 16 -1 19 -3 4 -6 -2 -5 -13z"/>
<path d="M13165 2449 c-4 -6 -5 -12 -2 -15 2 -3 7 2 10 11 7 17 1 20 -8 4z"/>
<path d="M12121 2424 c0 -11 3 -14 6 -6 3 7 2 16 -1 19 -3 4 -6 -2 -5 -13z"/>
<path d="M13131 2344 c0 -11 3 -14 6 -6 3 7 2 16 -1 19 -3 4 -6 -2 -5 -13z"/>
<path d="M11400 1630 c0 -5 5 -10 11 -10 5 0 7 5 4 10 -3 6 -8 10 -11 10 -2 0
-4 -4 -4 -10z"/>
<path d="M3568 5120 c-14 -34 -14 -35 10 -38 34 -5 38 3 20 41 l-16 32 -14
-35z"/>
<path d="M4850 5100 l0 -70 30 0 c17 0 39 9 50 20 43 43 11 120 -50 120 l-30
0 0 -70z"/>
<path d="M3970 5105 c-11 -13 -7 -15 24 -15 37 0 48 13 20 24 -23 9 -30 8 -44
-9z"/>
<path d="M4268 5109 c-25 -14 -24 -65 2 -79 14 -8 26 -8 40 0 27 14 27 65 1
80 -23 12 -22 12 -43 -1z"/>
<path d="M4442 5104 c-27 -18 -28 -45 -4 -67 24 -22 35 -21 56 2 22 24 18 49
-9 67 -18 12 -24 11 -43 -2z"/>
<path d="M5060 5100 c-11 -11 -20 -23 -20 -28 0 -15 31 -52 45 -52 20 0 45 28
45 50 0 19 -25 50 -41 50 -5 0 -18 -9 -29 -20z"/>
<path d="M5650 5112 c-35 -12 -41 -65 -10 -82 30 -16 60 4 60 40 0 31 -24 51
-50 42z"/>
<path d="M5890 5105 c-11 -13 -6 -15 31 -15 41 1 43 2 25 15 -25 19 -40 19
-56 0z"/>
<path d="M5013 4350 c-13 -5 -32 -24 -43 -42 -17 -28 -20 -51 -20 -154 0 -109
2 -124 23 -155 43 -64 141 -64 184 0 21 31 23 46 23 153 0 87 -4 127 -15 148
-26 51 -95 73 -152 50z"/>
<path d="M5464 4360 c-28 -11 -54 -48 -54 -78 0 -30 43 -72 74 -72 38 0 55 10
71 41 20 38 19 54 -7 83 -27 29 -55 38 -84 26z"/>
<path d="M2963 4193 c-12 -2 -36 -20 -53 -39 -58 -67 -35 -166 47 -201 78 -32
153 25 153 117 0 55 -22 94 -64 114 -34 16 -42 17 -83 9z"/>
<path d="M3874 4172 c-31 -25 -44 -55 -44 -102 0 -79 39 -119 114 -120 41 0
53 5 82 34 30 30 34 40 34 86 0 46 -4 56 -34 86 -29 29 -41 34 -82 34 -31 0
-57 -7 -70 -18z"/>
<path d="M6438 4170 c-59 -46 -63 -144 -8 -192 24 -22 40 -28 78 -28 56 0 83
17 106 65 24 49 13 106 -26 145 -25 25 -38 30 -77 30 -33 0 -56 -6 -73 -20z"/>
<path d="M5862 4077 c-69 -74 32 -184 103 -112 16 15 25 36 25 55 0 68 -83
105 -128 57z"/>
<path d="M2908 3384 c-24 -13 -48 -42 -48 -58 0 -3 47 -6 105 -6 118 0 129 8
74 54 -35 30 -88 34 -131 10z"/>
<path d="M3771 3374 c-55 -46 -44 -54 74 -54 68 0 105 4 105 11 0 6 -13 24
-29 40 -40 40 -105 41 -150 3z"/>
<path d="M6453 3393 c-12 -2 -36 -20 -53 -39 -24 -28 -30 -44 -30 -80 0 -39 5
-51 34 -80 29 -29 41 -34 83 -34 72 1 113 42 113 114 0 83 -65 135 -147 119z"/>
<path d="M13621 2849 c-6 -18 -9 -34 -7 -36 2 -2 9 10 15 28 6 18 9 34 7 36
-2 2 -9 -10 -15 -28z"/>
<path d="M13728 2842 c-3 -11 0 -19 7 -19 7 0 10 8 7 19 -2 10 -6 18 -7 18 -1
0 -5 -8 -7 -18z"/>
<path d="M13676 2803 c-6 -14 -5 -15 5 -6 7 7 10 15 7 18 -3 3 -9 -2 -12 -12z"/>
<path d="M13800 2816 c0 -2 8 -10 18 -17 15 -13 16 -12 3 4 -13 16 -21 21 -21
13z"/>
<path d="M13724 2794 c9 -8 16 -19 16 -23 0 -4 7 -8 15 -8 12 0 10 6 -7 24
-12 13 -26 23 -30 23 -5 0 -2 -7 6 -16z"/>
<path d="M13596 2785 c-9 -26 -7 -32 5 -12 6 10 9 21 6 23 -2 3 -7 -2 -11 -11z"/>
<path d="M13808 2773 c13 -13 32 -23 43 -23 11 0 17 -4 14 -10 -3 -6 1 -7 9
-4 27 10 18 21 -21 29 -21 4 -45 12 -53 18 -9 7 -5 2 8 -10z"/>
<path d="M14113 2793 c9 -2 23 -2 30 0 6 3 -1 5 -18 5 -16 0 -22 -2 -12 -5z"/>
<path d="M13652 2731 c-30 -34 -49 -61 -44 -61 11 0 45 38 73 80 9 14 20 22
25 18 4 -5 0 -16 -8 -25 -29 -34 -31 -48 -3 -21 23 22 27 31 19 48 -9 20 -13
18 -62 -39z"/>
<path d="M14040 2780 c8 -5 24 -10 35 -10 17 0 17 2 5 10 -8 5 -24 10 -35 10
-17 0 -17 -2 -5 -10z"/>
<path d="M13639 2753 l-24 -28 28 24 c15 14 27 26 27 28 0 8 -8 1 -31 -24z"/>
<path d="M14233 2773 c9 -2 23 -2 30 0 6 3 -1 5 -18 5 -16 0 -22 -2 -12 -5z"/>
<path d="M13583 2725 c0 -8 4 -12 9 -9 4 3 8 9 8 15 0 5 -4 9 -8 9 -5 0 -9 -7
-9 -15z"/>
<path d="M13785 2730 c44 -11 67 -11 60 0 -3 6 -25 9 -48 9 -40 -1 -40 -2 -12
-9z"/>
<path d="M14528 2703 c6 -2 18 -2 25 0 6 3 1 5 -13 5 -14 0 -19 -2 -12 -5z"/>
<path d="M14448 2694 c-4 -3 11 -21 33 -41 50 -46 84 -118 104 -227 20 -104
15 -131 -44 -257 -21 -46 -55 -120 -76 -164 -20 -44 -48 -95 -62 -114 -23 -29
-23 -32 -5 -22 29 15 51 55 132 235 78 174 89 223 71 315 -22 112 -42 161 -86
215 -28 35 -40 56 -32 60 7 2 3 5 -9 5 -11 1 -23 -2 -26 -5z"/>
<path d="M14529 2655 c17 -19 38 -50 47 -68 28 -53 54 -168 54 -239 0 -77 -9
-102 -101 -293 -78 -160 -76 -154 -51 -130 37 35 162 328 168 393 8 81 -34
239 -81 307 l-35 50 38 6 c34 6 33 6 -17 8 l-53 1 31 -35z"/>
<path d="M14727 2569 c7 -7 15 -10 18 -7 3 3 -2 9 -12 12 -14 6 -15 5 -6 -5z"/>
<path d="M13371 2523 c-5 -10 -13 -17 -18 -15 -8 4 -14 -15 -33 -110 -6 -31
-22 -78 -35 -103 l-23 -47 24 23 c13 12 21 26 18 30 -3 5 -1 9 5 9 17 0 50 74
60 136 5 33 12 67 16 77 4 9 5 17 2 17 -3 0 -10 -8 -16 -17z m-15 -74 c-4 -29
-14 -66 -22 -83 -8 -17 -12 -22 -8 -11 3 11 11 48 16 83 13 75 23 83 14 11z"/>
<path d="M13489 2493 c-13 -16 -12 -17 4 -4 16 13 21 21 13 21 -2 0 -10 -8
-17 -17z"/>
<path d="M14753 2330 c0 -25 2 -35 4 -22 2 12 2 32 0 45 -2 12 -4 2 -4 -23z"/>
<path d="M13850 2263 c-40 -42 -41 -44 -11 -22 30 22 70 69 59 69 -2 0 -24
-21 -48 -47z"/>
<path d="M12938 2234 c-7 -7 42 -84 54 -84 4 0 8 -5 8 -10 0 -6 -10 -8 -23 -5
-25 7 -78 -27 -64 -41 4 -4 14 2 23 14 8 12 22 22 30 22 10 0 5 -9 -13 -24
-15 -13 -25 -27 -22 -31 4 -3 18 5 32 19 15 14 33 26 42 26 22 0 19 16 -10 44
-14 14 -25 30 -25 36 0 20 18 10 40 -23 17 -25 30 -33 49 -32 55 4 57 5 36 17
-11 6 -31 22 -44 35 -13 12 -28 23 -32 23 -5 0 8 -16 29 -35 26 -24 32 -35 20
-35 -18 0 -33 13 -68 57 -17 22 -23 25 -30 13 -9 -14 -14 -7 -11 13 1 8 -13
10 -21 1z"/>
<path d="M14726 2215 c-9 -26 -7 -32 5 -12 6 10 9 21 6 23 -2 3 -7 -2 -11 -11z"/>
<path d="M13165 2164 c-19 -15 -22 -21 -9 -15 18 9 52 41 43 41 -2 0 -17 -12
-34 -26z"/>
<path d="M12140 2148 c-16 -21 -28 -54 -36 -105 -6 -40 -8 -73 -4 -73 4 0 13
33 19 74 9 55 18 79 37 96 24 23 31 41 17 39 -5 0 -19 -14 -33 -31z"/>
<path d="M14697 2105 c-21 -25 -34 -45 -29 -45 9 0 46 44 66 78 13 22 1 12
-37 -33z"/>
<path d="M11956 2090 c-17 -43 -20 -153 -6 -290 5 -46 6 -13 2 85 -4 134 -2
166 12 199 9 22 15 41 12 43 -2 2 -11 -14 -20 -37z"/>
<path d="M11916 2089 c-12 -20 -20 -56 -22 -98 l-3 -66 10 70 c5 42 17 81 29
98 12 15 17 27 12 27 -4 0 -16 -14 -26 -31z"/>
<path d="M13670 2069 c0 -5 5 -7 10 -4 6 3 10 8 10 11 0 2 -4 4 -10 4 -5 0
-10 -5 -10 -11z"/>
<path d="M14652 2020 c-18 -17 -29 -30 -24 -30 5 0 21 14 37 30 37 38 30 38
-13 0z"/>
<path d="M14680 2005 c-13 -14 -20 -25 -16 -25 5 0 2 -8 -5 -17 -13 -16 -12
-17 4 -4 9 8 15 16 12 19 -3 3 5 16 17 29 12 13 19 23 16 23 -2 0 -15 -11 -28
-25z"/>
<path d="M13815 1929 c-29 -28 -29 -29 -7 -29 31 0 62 17 62 34 0 26 -25 23
-55 -5z"/>
<path d="M11903 1840 c0 -41 2 -58 4 -37 2 20 2 54 0 75 -2 20 -4 3 -4 -38z"/>
<path d="M11864 1680 c0 -134 2 -160 8 -109 4 36 4 115 0 175 -8 106 -8 105
-8 -66z"/>
<path d="M11910 1677 c0 -52 -8 -113 -20 -161 -24 -92 -21 -113 4 -29 17 57
35 273 22 273 -3 0 -6 -37 -6 -83z"/>
<path d="M11963 1660 c0 -30 2 -43 4 -27 2 15 2 39 0 55 -2 15 -4 2 -4 -28z"/>
<path d="M11833 1630 c0 -41 2 -58 4 -37 2 20 2 54 0 75 -2 20 -4 3 -4 -38z"/>
<path d="M13572 1659 c2 -20 8 -23 32 -21 17 2 41 10 55 17 26 14 26 14 -16
15 -23 0 -49 3 -58 6 -13 5 -16 2 -13 -17z"/>
<path d="M11784 1515 c0 -66 1 -92 3 -57 2 34 2 88 0 120 -2 31 -3 3 -3 -63z"/>
<path d="M11947 1559 c-3 -26 -24 -88 -47 -138 -22 -51 -40 -97 -40 -104 1
-20 78 158 91 206 6 25 9 53 7 63 -2 11 -7 -2 -11 -27z"/>
<path d="M12800 1580 c0 -5 8 -10 18 -10 9 0 35 -2 57 -5 l40 -5 -30 14 c-35
17 -85 21 -85 6z"/>
<path d="M11842 1510 c0 -19 2 -27 5 -17 2 9 2 25 0 35 -3 9 -5 1 -5 -18z"/>
<path d="M11832 1405 c0 -16 2 -22 5 -12 2 9 2 23 0 30 -3 6 -5 -1 -5 -18z"/>
<path d="M11841 1334 c0 -11 3 -14 6 -6 3 7 2 16 -1 19 -3 4 -6 -2 -5 -13z"/>
<path d="M4200 2140 c0 -100 3 -120 15 -120 11 0 15 13 15 54 0 59 14 80 52
74 21 -3 23 -9 26 -65 2 -47 7 -63 17 -63 12 0 15 15 15 68 0 76 -9 92 -55 92
-17 0 -36 -5 -43 -12 -9 -9 -12 0 -12 40 0 40 -4 52 -15 52 -12 0 -15 -20 -15
-120z"/>
<path d="M4027 2232 c-22 -24 -22 -65 1 -84 9 -9 34 -23 55 -32 31 -12 38 -20
35 -38 -4 -29 -51 -37 -77 -13 -16 13 -20 14 -30 1 -18 -21 23 -46 76 -46 35
0 46 5 59 26 25 38 9 74 -45 101 -59 30 -67 39 -51 58 14 17 56 20 65 5 5 -8
11 -7 21 1 23 19 -3 39 -51 39 -28 0 -47 -6 -58 -18z"/>
<path d="M4419 2170 c-29 -17 -43 -66 -29 -100 15 -37 37 -50 84 -50 67 0 103
92 53 138 -25 23 -79 29 -108 12z m93 -45 c17 -37 -3 -75 -40 -75 -35 0 -52
16 -52 50 0 34 17 50 52 50 21 0 32 -7 40 -25z"/>
<path d="M4590 2064 c0 -107 1 -114 20 -114 17 0 20 7 20 39 l0 39 43 -5 c33
-4 46 -1 60 15 29 32 32 82 7 114 -19 25 -27 28 -86 27 l-64 -1 0 -114z m118
74 c7 -7 12 -24 12 -38 0 -34 -17 -50 -52 -50 -37 0 -57 38 -40 75 13 27 58
35 80 13z"/>
<path d="M4880 2100 c0 -64 3 -80 15 -80 11 0 15 13 15 53 0 57 12 77 46 77
27 0 34 -17 34 -81 0 -37 4 -49 15 -49 12 0 15 13 15 61 0 78 -11 99 -53 99
-18 0 -38 -5 -45 -12 -9 -9 -12 -9 -12 0 0 7 -7 12 -15 12 -12 0 -15 -16 -15
-80z"/>
<path d="M5081 2154 c-46 -59 -8 -134 68 -134 46 0 81 34 81 80 0 15 -9 39
-21 54 -16 21 -29 26 -64 26 -35 0 -48 -5 -64 -26z m113 -36 c20 -57 -57 -93
-90 -43 -15 23 -15 27 0 51 24 36 76 31 90 -8z"/>
<path d="M5252 2168 c3 -7 15 -43 27 -80 17 -51 27 -68 41 -68 11 0 20 10 24
25 3 13 11 37 17 52 l11 28 18 -50 c25 -74 47 -68 77 19 27 82 27 86 9 86 -9
0 -22 -24 -34 -57 l-19 -58 -18 58 c-23 71 -43 72 -64 4 -8 -26 -18 -47 -22
-47 -4 0 -13 23 -20 50 -10 38 -17 50 -32 50 -11 0 -17 -5 -15 -12z"/>
<path d="M13344 389 c-3 -6 -1 -16 5 -22 8 -8 11 -5 11 11 0 24 -5 28 -16 11z"/>
<path d="M13380 300 c0 -19 3 -21 12 -12 9 9 9 15 0 24 -9 9 -12 7 -12 -12z"/>
<path d="M10615 347 c-25 -19 -16 -61 14 -65 40 -6 58 48 22 67 -13 7 -23 6
-36 -2z"/>
<path d="M13155 344 c-19 -20 -16 -43 8 -58 20 -13 50 2 55 26 3 16 -23 48
-38 48 -5 0 -16 -7 -25 -16z"/>
<path d="M13671 381 c-11 -20 -9 -69 3 -90 13 -20 46 -12 58 14 26 57 -33 130
-61 76z"/>
<path d="M13817 393 c-4 -3 -7 -28 -7 -55 0 -36 4 -50 16 -55 38 -14 64 35 50
93 -5 17 -13 24 -30 24 -12 0 -26 -3 -29 -7z"/>
<path d="M14240 386 c0 -8 4 -17 9 -20 11 -7 33 18 24 27 -12 12 -33 7 -33 -7z"/>
<path d="M14226 314 c-8 -21 1 -34 24 -34 25 0 35 17 20 35 -16 20 -36 19 -44
-1z"/>
<path d="M15013 349 c-40 -15 -24 -73 18 -67 17 2 25 10 27 29 4 33 -16 49
-45 38z"/>
<path d="M8940 339 l0 -61 32 6 c42 8 51 19 51 57 0 36 -24 59 -60 59 -22 0
-23 -4 -23 -61z"/>
<path d="M9395 347 c-10 -8 -16 -23 -13 -38 2 -19 9 -24 33 -24 25 0 31 4 33
27 4 34 -26 54 -53 35z"/>
<path d="M9936 344 c-19 -19 -20 -36 -4 -52 34 -34 79 7 52 46 -18 26 -27 27
-48 6z"/>
<path d="M10086 344 c-27 -27 -12 -64 26 -64 33 0 43 53 14 72 -16 11 -23 10
-40 -8z"/>
<path d="M10237 349 c-22 -13 -22 -58 -1 -66 39 -15 73 46 37 65 -12 7 -25 7
-36 1z"/>
<path d="M10483 353 c-24 -9 -13 -23 17 -23 32 0 40 14 14 24 -9 3 -16 6 -17
5 -1 0 -8 -3 -14 -6z"/>
<path d="M11186 347 c-11 -8 -17 -23 -14 -38 2 -19 9 -24 33 -24 24 0 31 5 33
23 3 22 -13 52 -27 52 -4 0 -15 -6 -25 -13z"/>
<path d="M12755 346 c-13 -9 -16 -20 -11 -40 5 -22 11 -27 34 -24 21 2 28 9
30 30 4 34 -26 54 -53 34z"/>
<path d="M12894 345 c-18 -13 -16 -14 19 -15 41 0 46 5 18 19 -13 7 -24 6 -37
-4z"/>
<path d="M14725 343 c-18 -18 -19 -35 -3 -51 28 -28 75 -1 63 36 -8 26 -41 34
-60 15z"/>
<path d="M15200 345 c-11 -13 -7 -15 25 -15 32 0 36 2 25 15 -7 8 -18 15 -25
15 -7 0 -18 -7 -25 -15z"/>
<path d="M15925 346 c-13 -9 -16 -20 -11 -40 5 -22 11 -27 34 -24 21 2 28 9
30 30 4 34 -26 54 -53 34z"/>
<path d="M16355 347 c-10 -8 -16 -23 -13 -38 2 -19 9 -24 33 -24 25 0 31 4 33
27 4 34 -26 54 -53 35z"/>
<path d="M16505 347 c-10 -8 -16 -23 -13 -38 2 -19 9 -24 33 -24 25 0 31 4 33
27 4 34 -26 54 -53 35z"/>
<path d="M16645 344 c-19 -19 -16 -43 6 -57 37 -23 69 29 37 61 -16 16 -23 15
-43 -4z"/>
</g>
</svg>
