<svg xmlns="http://www.w3.org/2000/svg" fill="none" viewBox="0 0 146 73" height="73" width="146">
<g clip-path="url(#clip0_1173_31565)">
<path fill="#5C749E" d="M88.7764 65.031H86.3318C86.1613 65.031 86.0476 65.031 85.877 64.9741H85.4791C85.3085 64.9173 85.0811 64.9741 84.8537 64.8604H84.1146L84.0009 64.8036L83.4893 64.7467H83.3187L82.9776 64.6899H82.8071L81.9543 64.5762L81.4427 64.4625C80.2488 64.2919 79.0549 64.0645 77.9179 63.7803L76.7809 63.4392L75.7576 63.0981C74.0521 62.4727 72.4603 61.7337 70.9253 60.7672L70.0726 60.085L69.5041 59.5165C69.0493 59.0617 68.5945 58.55 68.3102 57.9815C67.9123 57.3562 67.628 56.6171 67.4574 55.8781L67.3438 55.139V55.0253V54.4568C67.3438 53.5472 67.628 52.6944 68.1965 52.0122C68.4808 51.6711 68.765 51.33 69.2198 51.1026C70.0157 50.6478 70.9253 50.3636 71.8349 50.3636H72.2897C73.9953 50.5341 75.6439 51.0458 77.122 51.8985C77.8611 52.3533 78.6001 52.8081 79.2824 53.3198L80.7036 54.3431L81.5564 54.9116C82.2954 55.4233 83.0345 55.9349 83.8304 56.3897L84.5694 56.7877C85.9339 57.4699 87.3551 57.8678 88.8332 58.0952H89.4017L89.686 58.1521H92.8128L93.495 58.0952H93.5518L94.0066 58.0384H94.4046L94.5183 57.9815L95.2573 57.9247L96.2806 57.7541C96.5649 57.7541 96.8492 57.6404 97.0766 57.5836C98.3273 57.2993 99.5211 56.8445 100.658 56.276L101.795 55.6507L102.364 55.3096L103.614 54.3431L104.297 53.7746L104.581 53.5472L105.092 52.9787L105.377 52.6944L106.059 51.8417C107.196 50.193 108.219 48.4306 109.186 46.6683C109.754 45.5313 110.209 44.3374 110.55 43.0867L111.119 41.2106V41.0969L110.834 40.9264L110.152 40.6421L109.015 40.0736C105.888 38.5387 103.501 35.8098 102.477 32.4557L101.909 30.2953L101.795 29.3289L101.681 28.4761V28.3624L101.625 27.6234V27.1686L101.568 26.8843V25.861V25.6336L101.625 24.8377V24.3829C101.625 24.3829 101.681 24.326 101.625 24.2692L101.738 23.4733L101.852 22.7911C101.966 21.9952 102.193 21.2561 102.477 20.5171C102.762 20.0623 103.103 19.6074 103.614 19.2095C103.842 18.9821 104.183 18.8115 104.581 18.641H105.263C105.547 18.641 105.832 18.641 106.116 18.8115C107.139 19.2663 107.935 20.0054 108.447 20.9719L108.845 21.8246L109.015 22.6774L109.186 23.8144V23.9849L109.243 24.5534L109.299 25.0082V25.1788C109.299 25.3493 109.299 25.5768 109.413 25.7473V26.6001L109.584 27.5665L109.641 28.135L109.697 28.533C109.925 29.6131 110.209 30.6933 110.493 31.7735L110.891 32.6831C111.062 32.9673 111.346 33.2516 111.687 33.4221H112.085L112.312 33.081L113.449 31.3755L114.018 30.4659L114.359 29.7268C114.928 28.4761 115.382 27.1686 115.667 25.861C115.951 24.4966 116.519 23.2459 117.202 22.052L117.315 21.8815C117.543 21.4267 117.884 21.0287 118.282 20.7445C118.793 20.3465 119.419 20.1191 120.101 20.0054H120.726C121.067 20.0054 121.409 20.176 121.693 20.3465C122.034 20.5739 122.261 20.915 122.489 21.2561C122.659 21.6541 122.83 22.1089 122.887 22.5637L123 23.3596V25.2925C123 25.5199 123 25.6905 122.887 25.861V25.9747C122.887 26.5432 122.716 27.2254 122.602 27.7371L122.318 28.9878L121.863 30.5227L121.295 32.342L120.84 33.7632L120.101 36.0372L119.532 37.5722L119.191 38.5955L118.737 39.8462L118.111 41.438L117.656 42.5182L116.974 44.2237L116.406 45.7587L116.065 46.4409V46.5546C114.871 49.056 113.506 51.4437 111.971 53.7746C111.63 54.2294 111.346 54.741 110.948 55.139L110.38 55.9349L110.266 56.0486L109.641 56.7308L108.049 58.4363L107.253 59.0048C107.025 59.2891 106.741 59.4596 106.457 59.687C105.263 60.6535 103.955 61.4494 102.591 62.0748L100.829 62.8707L99.4074 63.4392L97.7019 64.0077C97.3608 64.0077 97.0197 64.1782 96.6786 64.2351L95.1436 64.5762L94.1203 64.6899L93.3244 64.8036H93.1539L92.6991 64.8604C92.6422 64.8604 92.5854 64.8604 92.5285 64.8604L91.96 64.9173L91.4484 64.9741H90.5388L90.0271 65.031H88.7764Z" clip-rule="evenodd" fill-rule="evenodd"></path>
<path fill="#5C749E" d="M84.3996 31.3197V32.2862L84.3428 32.8547V33.1958C84.3428 33.4232 84.3428 33.7075 84.2291 33.9349V34.9582L84.1722 35.3561V35.8678L84.1154 35.9815L84.0017 36.8342L83.7174 38.3124C83.49 39.3925 83.2058 40.4158 82.8078 41.4391L82.1256 43.1446L81.955 43.4857C81.5002 44.3954 80.9886 45.1913 80.3064 45.9303C80.0221 46.2146 79.7379 46.4988 79.3399 46.7262C78.7714 47.0673 78.1461 47.2947 77.4639 47.4084L77.0091 47.4653C76.4974 47.579 76.0426 47.5221 75.5878 47.5221L74.6213 47.4084C73.1432 47.1242 71.7788 46.4988 70.6418 45.5324L69.6185 44.4522C68.5952 43.2583 67.7424 41.8939 67.0602 40.4158C66.3212 38.7672 65.7527 37.0616 65.3547 35.2993L65.0136 33.9917L64.7862 32.5705L64.6725 31.8882L64.6157 31.1492V31.0355C64.6157 30.8649 64.6157 30.6375 64.502 30.467V30.2396V29.6711V29.33V28.4772V28.0793V27.6245V27.3402L64.5588 27.2265L64.6157 26.6012C64.7862 25.4641 65.1273 24.384 65.5821 23.3607L66.0369 22.7353C66.776 21.9394 67.7424 21.3709 68.7657 21.0298L69.4479 20.9161L70.0733 20.8593C70.6418 20.8593 71.2103 21.0298 71.6651 21.4278C71.8925 21.5415 72.0631 21.712 72.2336 21.9394C72.461 22.2237 72.6884 22.6216 72.8021 23.0196C73.0295 23.7018 73.1432 24.384 73.2001 25.0662V26.4875L73.1432 27.056V27.4539L73.0864 27.6245L73.0295 28.193V28.4204L72.9727 28.7615V29.1594L72.9158 29.6142V29.9553L72.859 30.5238V31.3766L72.8021 31.9451V35.5267C72.8021 35.8109 72.9158 36.0952 72.9727 36.3226C73.1432 36.8911 73.6549 37.3459 74.2234 37.5164L74.9624 37.6301C75.5309 37.6301 75.9858 37.4027 76.3837 37.0616L76.7248 36.4363L77.0091 35.2993L77.1228 34.6171V34.5034V33.7643V32.6273V32.3999V31.8314V31.5471L77.0659 31.3197L77.0091 30.9786V30.8649L76.7817 29.6142L76.7248 28.8183C76.7248 28.3067 76.8385 27.795 77.0659 27.2834C77.2933 26.8286 77.6344 26.3738 77.9755 26.0326C78.3735 25.6915 78.8851 25.4073 79.4536 25.2936L80.1358 25.1799H80.2495C81.0454 25.2367 81.8413 25.521 82.5236 25.9758C82.8647 26.2032 83.2058 26.5443 83.49 26.8854C83.7743 27.3402 84.0017 27.8519 84.1154 28.3635L84.2859 29.33V29.7279C84.3996 30.069 84.3996 30.467 84.3996 30.8649V31.3197Z" clip-rule="evenodd" fill-rule="evenodd"></path>
<path fill="#5C749E" d="M84.5703 46.0439V45.0206V44.4521V44.2247V43.6562C84.6272 43.4856 84.5703 43.2582 84.684 43.0877V42.8603V42.2918V42.1212L84.7409 41.3253V40.9274L84.7977 40.5863L84.8546 40.0178V39.6198L84.9114 39.2787V39.1081L85.0251 38.2554L85.082 37.6869L85.1957 37.0047L85.3094 36.2656C85.6505 34.617 86.3895 33.0251 87.4697 31.7176L87.9245 31.1491L88.7772 30.3532C89.9143 29.2162 91.3355 28.4771 92.8705 28.136L93.439 28.0792H93.6664C93.7801 27.9655 93.9506 27.9655 94.1212 27.9655H95.8836C96.4521 27.9655 97.0206 28.1929 97.5891 28.4771L98.1576 28.8751L98.6692 29.4436C98.8966 29.9552 99.0672 30.41 99.1809 30.9217C99.2377 31.3765 99.2377 31.7744 99.1809 32.2292C99.1809 32.3998 99.1809 32.5703 99.0672 32.7977C98.9535 33.2525 98.7829 33.7074 98.4987 34.1053L98.1007 34.617L97.1911 35.4129L96.2247 35.9245C95.8267 36.0951 95.3719 36.2656 94.9171 36.3225L94.3486 36.4362L93.5527 36.5499H92.6999C92.1314 36.6636 91.5629 36.7204 91.1081 36.891L90.1985 37.3458C89.9143 37.5163 89.8006 37.8006 89.6869 38.0848V38.5396C89.7437 38.8807 89.9143 39.1082 90.1417 39.3356C90.3122 39.4493 90.4828 39.563 90.7102 39.563H91.8472L91.9609 39.5061H92.8136C93.0979 39.5061 93.3253 39.563 93.5527 39.6767C93.9506 39.8472 94.1212 40.1883 94.2917 40.5863V41.3822C94.2917 41.6096 94.2349 41.8938 94.0075 42.0644L93.439 42.6329L91.9609 43.6562L91.3924 43.9973C91.0513 44.2247 90.8239 44.5658 90.7102 44.9637C90.5965 45.248 90.5396 45.5323 90.6533 45.9302L90.8239 46.4987L90.9376 46.6124C91.2218 46.783 91.5061 46.8967 91.8472 46.9535H92.302C92.6431 46.9535 92.9273 46.8398 93.2116 46.6693L93.3821 46.5556L94.2917 45.5891V45.5323L95.0308 44.7363L95.6562 44.0541L95.8267 43.8267L96.85 42.974C97.1911 42.6897 97.6459 42.5192 98.1007 42.4055H98.7261L99.5788 42.4623C100.09 42.576 100.545 42.7466 101 43.0308C101.284 43.1445 101.569 43.3719 101.796 43.5993L102.137 44.2815C102.251 44.5658 102.308 44.85 102.365 45.1343V46.2145L102.251 46.7261C102.137 47.2946 101.967 47.8631 101.682 48.3179C101.455 48.8296 101.114 49.2844 100.716 49.6823L100.261 50.0803L100.147 50.194L99.0103 51.1036L97.987 51.9564L97.1911 52.5249L95.713 53.6619C94.7465 54.2872 93.6664 54.742 92.5862 55.0263C92.302 55.0831 92.0177 55.1968 91.6766 55.1968C91.3355 55.2537 91.1081 55.1968 90.767 55.1968C90.028 55.1968 89.2889 55.0831 88.6067 54.742C88.0382 54.4578 87.5265 54.1735 87.0717 53.7187L86.6169 53.3208C86.219 52.9228 85.821 52.4112 85.5368 51.8995L85.3094 51.3879L84.9114 50.0234L84.684 48.8864V48.7727V48.6022L84.6272 47.92V47.6357L84.5703 47.0672V46.0439Z" clip-rule="evenodd" fill-rule="evenodd"></path>
<path fill="#5C749E" d="M58.5894 53.0939H57.5092H57.3955C55.8037 52.9802 54.3256 52.3548 53.0749 51.3884L52.9043 51.2178L52.7906 51.1041L52.2221 50.4788L51.7105 49.626L51.4831 49.1144L51.0283 47.6931L50.9146 47.0109V46.6698L50.8009 45.8739V45.6465L50.744 45.1917V44.9643L50.6872 44.3958L50.5735 43.4293V42.804V42.6334C50.4598 42.406 50.4598 42.2355 50.4598 42.0081V41.6101V41.269C50.4598 41.0416 50.4598 40.871 50.3461 40.6436V40.2457V39.6772L50.2892 39.4498V39.1087L50.2324 38.9381V38.5402L50.1755 38.3128L50.1187 37.9717V37.7443L50.0618 37.3463V37.1189C50.0618 37.0052 50.0618 36.8347 49.9481 36.6641V36.5504V35.9819L49.8913 35.6976V35.1291L49.8344 34.8449L49.7207 33.9921V33.7647V31.7181V31.2633V31.1496L49.8344 30.2969L49.8913 29.8989L50.1187 29.0461C50.2892 28.5913 50.5166 28.1934 50.8577 27.7954L51.0283 27.6249L51.142 27.4543L51.7105 26.9427C52.279 26.4879 52.9612 26.1468 53.6434 25.9762C53.9845 25.8625 54.3824 25.8057 54.7804 25.8057H55.3489C56.4291 25.8057 57.5092 26.1468 58.362 26.829C58.7599 27.1132 59.0442 27.5112 59.2716 27.9091C59.6127 28.4776 59.8401 29.0461 59.9538 29.6146C60.0675 30.1832 60.1812 30.7517 60.1812 31.3202V33.8784C60.0675 34.1058 60.1243 34.2764 60.0675 34.4469V35.4702L60.0106 35.8682V36.2093C60.0106 36.3799 60.0106 36.6073 59.8969 36.7778V37.6306L59.8401 37.9717L59.7832 38.4833V38.8244L59.7264 39.2792V39.6203L59.6695 40.0751V40.4731C59.6695 40.5868 59.6695 40.7573 59.5558 40.9279V41.7807L59.499 42.0081V42.5766L59.4421 42.804V43.3725C59.5558 43.3725 59.5558 43.3156 59.6127 43.2588C60.2949 42.9745 61.0339 42.6903 61.773 42.406C62.2278 42.3492 62.6258 42.2355 63.0806 42.2923C63.7628 42.2923 64.3881 42.5766 64.8998 42.9745L65.184 43.2588C65.582 43.5999 65.8094 44.0547 65.9799 44.5663C66.0936 44.9643 66.2073 45.3622 66.2073 45.7602V46.0444C66.0936 47.5794 65.4683 49.0575 64.5018 50.2514L64.3881 50.4219L63.1374 51.5021C62.6826 51.8432 62.171 52.0706 61.6593 52.3548C61.0908 52.6391 60.5223 52.9233 59.8401 53.037C59.5558 53.037 59.2716 53.1507 58.9873 53.0939H58.4757H58.5894Z" clip-rule="evenodd" fill-rule="evenodd"></path>
<path fill="#5C749E" d="M38.8613 43.6552L38.6339 44.4511C38.4065 44.849 38.1222 45.247 37.7243 45.5881L37.44 45.7586L36.701 46.0997C36.303 46.2703 35.9051 46.3271 35.4503 46.4408H32.7783C32.6077 46.3271 32.4372 46.3271 32.2098 46.3271C32.0392 46.2703 31.8687 46.2134 31.755 46.0997C31.6413 46.0429 31.5844 45.986 31.5276 45.8723L31.4707 45.5881V44.9059V44.4511V44.0531V43.7689L31.5276 42.7456C31.5276 42.575 31.5276 42.3476 31.6981 42.1771L32.0392 41.7223C32.2666 41.5517 32.494 41.438 32.7214 41.3812C33.1762 41.2106 33.631 41.04 34.1427 40.9832L34.7112 40.9263L35.6208 40.8695H36.0756C36.6441 40.9832 37.2126 41.1538 37.7811 41.438C37.8948 41.438 38.0654 41.6086 38.1791 41.7223C38.577 42.0634 38.8613 42.575 38.9181 43.0867L38.8613 43.6552ZM31.2433 34.4454L30.9022 33.4221L30.7885 32.8536V31.8303V31.3755V31.2049C30.7885 30.8638 30.9022 30.5227 31.0728 30.2385C31.2433 30.0111 31.357 29.7837 31.5844 29.67C31.8118 29.4425 32.0392 29.272 32.3235 29.2151C32.7783 29.0446 33.2899 29.0446 33.7447 29.2151C34.029 29.2151 34.2564 29.3857 34.4838 29.5563C34.7681 29.8405 35.0523 30.2385 35.0523 30.6933V30.9775L34.8818 32.0008L34.5975 32.6262C34.4838 32.9673 34.3132 33.3084 34.0858 33.5926L33.6879 34.1043C33.4036 34.3885 33.1194 34.6159 32.7214 34.7296C32.494 34.8433 32.2666 34.9002 32.0392 34.8433C31.8118 34.8433 31.5844 34.7865 31.4139 34.6728L31.2433 34.4454ZM48.867 43.5415L48.7533 42.7456C48.5259 41.5517 48.1279 40.4147 47.5026 39.3914C47.1615 38.8229 46.7635 38.3681 46.3656 37.8564L45.7402 37.2879L44.7169 36.4352L43.0114 35.4119H42.8977C42.3292 35.0707 41.647 34.8433 40.9648 34.7296L40.6805 34.6728C40.6805 34.6728 40.6237 34.6159 40.6805 34.5591V34.4454C40.6805 34.1043 40.7942 33.82 40.8511 33.5358C40.9648 32.9673 41.0785 32.5125 41.0785 32.0008V31.7166L41.1353 31.4323L41.1922 30.8638V30.6933V28.874V28.6466V28.3055L41.1353 28.0781L40.9079 26.8843C40.6805 26.0884 40.3394 25.3493 39.7709 24.6671C39.4298 24.2692 39.0318 23.9281 38.6339 23.6438C38.0654 23.189 37.44 22.9047 36.7578 22.6773C35.7914 22.3362 34.8249 22.1088 33.8584 21.9383C33.5742 21.9383 33.2899 21.8246 33.0625 21.8814H32.9488L32.5509 21.8246H30.7317L30.5611 21.8814L29.4241 22.1088C28.4576 22.3362 27.4912 22.791 26.6953 23.4164C25.7288 24.1555 24.9329 25.0651 24.3076 26.1452C23.9665 26.8274 23.6822 27.5665 23.4548 28.3055L23.3411 29.0446V29.3857C23.3411 29.7268 23.3411 30.0111 23.2274 30.3522V31.2618L23.1706 31.8303V32.8536L23.1137 33.1947V34.6728L23.0569 35.1844V37.8564L23 38.2544V45.0196L23.0569 45.4175V46.384C23.1137 46.8957 23.0569 47.3505 23.1706 47.8621V48.5443L23.3411 49.1697C23.4548 49.7382 23.6254 50.3635 23.9096 50.932L24.4781 51.7279L25.1603 52.1827C26.0131 52.6944 26.9795 53.0924 27.946 53.3766C28.7419 53.604 29.5947 53.8314 30.4474 53.9451L30.9022 54.0588L31.4139 54.1157L32.2666 54.2294H32.3803L32.7783 54.2862H32.9488L33.5173 54.3431H33.6879C33.8584 54.4568 34.029 54.4568 34.2564 54.4568H37.7811L38.9181 54.2294C40.2257 54.002 41.5333 53.5472 42.7271 52.9218C43.6936 52.467 44.6032 51.8985 45.5128 51.33C45.9107 50.9889 46.2519 50.7615 46.593 50.3635L47.0478 49.9087C47.73 49.1128 48.2416 48.0895 48.469 47.0662C48.6396 46.4977 48.7533 45.9292 48.7533 45.3607V45.1901V44.7353V43.7689V43.4846" clip-rule="evenodd" fill-rule="evenodd"></path>
</g>
<defs>
<clipPath id="clip0_1173_31565">
<rect transform="translate(23 18.6389)" fill="white" height="46.39" width="100"></rect>
</clipPath>
</defs>
</svg>
